EBGaramondVF-xtransparentMax.ufo
<glyph name="dollar" format="1">
  <advance width="841"/>
  <unicode hex="0024"/>
  <outline>
    <contour>
      <point x="368" y="-82"/>
      <point x="381" y="-78"/>
      <point x="383" y="-67" type="curve" smooth="yes"/>
      <point x="398" y="9" type="line" smooth="yes"/>
      <point x="399" y="14"/>
      <point x="403" y="16"/>
      <point x="408" y="16" type="curve" smooth="yes"/>
      <point x="641" y="20"/>
      <point x="795" y="88"/>
      <point x="795" y="193" type="curve" smooth="yes"/>
      <point x="795" y="255"/>
      <point x="738" y="298"/>
      <point x="481" y="366" type="curve" smooth="yes"/>
      <point x="467" y="370"/>
      <point x="468" y="374"/>
      <point x="470" y="382" type="curve" smooth="yes"/>
      <point x="510" y="588" type="line"/>
      <point x="510" y="590"/>
      <point x="512" y="593"/>
      <point x="514" y="593" type="curve"/>
      <point x="613" y="586"/>
      <point x="710" y="563"/>
      <point x="743" y="503" type="curve" smooth="yes"/>
      <point x="746" y="496"/>
      <point x="758" y="489"/>
      <point x="768" y="489" type="curve" smooth="yes"/>
      <point x="776" y="489"/>
      <point x="782" y="492"/>
      <point x="782" y="500" type="curve" smooth="yes"/>
      <point x="782" y="528"/>
      <point x="761" y="564"/>
      <point x="745" y="589" type="curve" smooth="yes"/>
      <point x="739" y="599"/>
      <point x="724" y="608"/>
      <point x="705" y="612" type="curve" smooth="yes"/>
      <point x="667" y="620"/>
      <point x="608" y="630"/>
      <point x="526" y="632" type="curve"/>
      <point x="521" y="633"/>
      <point x="520" y="636"/>
      <point x="521" y="639" type="curve" smooth="yes"/>
      <point x="524" y="648"/>
      <point x="530" y="687"/>
      <point x="532" y="697" type="curve"/>
      <point x="532" y="704"/>
      <point x="527" y="712"/>
      <point x="520" y="712" type="curve" smooth="yes"/>
      <point x="507" y="712"/>
      <point x="492" y="708"/>
      <point x="490" y="695" type="curve" smooth="yes"/>
      <point x="479" y="638" type="line" smooth="yes"/>
      <point x="478" y="635"/>
      <point x="474" y="632"/>
      <point x="468" y="632" type="curve" smooth="yes"/>
      <point x="233" y="625"/>
      <point x="118" y="554"/>
      <point x="118" y="467" type="curve" smooth="yes"/>
      <point x="118" y="410"/>
      <point x="182" y="373"/>
      <point x="399" y="313" type="curve" smooth="yes"/>
      <point x="410" y="309"/>
      <point x="411" y="301"/>
      <point x="410" y="296" type="curve" smooth="yes"/>
      <point x="364" y="51" type="line" smooth="yes"/>
      <point x="363" y="47"/>
      <point x="359" y="47"/>
      <point x="355" y="47" type="curve"/>
      <point x="209" y="55"/>
      <point x="149" y="85"/>
      <point x="116" y="175" type="curve" smooth="yes"/>
      <point x="114" y="180"/>
      <point x="106" y="185"/>
      <point x="99" y="185" type="curve" smooth="yes"/>
      <point x="89" y="185"/>
      <point x="80" y="180"/>
      <point x="80" y="173" type="curve"/>
      <point x="84" y="147"/>
      <point x="86" y="102"/>
      <point x="98" y="77" type="curve" smooth="yes"/>
      <point x="102" y="70"/>
      <point x="114" y="64"/>
      <point x="123" y="59" type="curve"/>
      <point x="184" y="34"/>
      <point x="261" y="20"/>
      <point x="351" y="17" type="curve" smooth="yes"/>
      <point x="354" y="17"/>
      <point x="359" y="14"/>
      <point x="358" y="8" type="curve" smooth="yes"/>
      <point x="344" y="-62" type="line" smooth="yes"/>
      <point x="341" y="-75"/>
      <point x="349" y="-82"/>
      <point x="357" y="-82" type="curve" smooth="yes"/>
    </contour>
    <contour>
      <point x="408" y="45"/>
      <point x="406" y="47"/>
      <point x="406" y="55" type="curve"/>
      <point x="453" y="292" type="line" smooth="yes"/>
      <point x="454" y="296"/>
      <point x="457" y="298"/>
      <point x="461" y="297" type="curve"/>
      <point x="634" y="251"/>
      <point x="717" y="227"/>
      <point x="717" y="156" type="curve" smooth="yes"/>
      <point x="717" y="68"/>
      <point x="557" y="45"/>
      <point x="414" y="45" type="curve" smooth="yes"/>
    </contour>
    <contour>
      <point x="253" y="431"/>
      <point x="191" y="465"/>
      <point x="191" y="498" type="curve" smooth="yes"/>
      <point x="191" y="579"/>
      <point x="320" y="595"/>
      <point x="461" y="595" type="curve" smooth="yes"/>
      <point x="466" y="595"/>
      <point x="467" y="592"/>
      <point x="467" y="587" type="curve"/>
      <point x="428" y="389" type="line" smooth="yes"/>
      <point x="428" y="383"/>
      <point x="425" y="382"/>
      <point x="417" y="384" type="curve"/>
    </contour>
  </outline>
</glyph>
<glyph name="asterisk" format="1">
  <advance width="686"/>
  <unicode hex="002A"/>
  <outline>
    <contour>
      <point x="364" y="372"/>
      <point x="370" y="383"/>
      <point x="370" y="394" type="curve"/>
      <point x="369" y="429"/>
      <point x="366" y="464"/>
      <point x="363" y="492" type="curve"/>
      <point x="444" y="478"/>
      <point x="502" y="469"/>
      <point x="566" y="455" type="curve" smooth="yes"/>
      <point x="582" y="452"/>
      <point x="615" y="453"/>
      <point x="615" y="467" type="curve" smooth="yes"/>
      <point x="615" y="474"/>
      <point x="606" y="479"/>
      <point x="592" y="483" type="curve" smooth="yes"/>
      <point x="530" y="499"/>
      <point x="449" y="518"/>
      <point x="397" y="528" type="curve"/>
      <point x="574" y="583" type="line" smooth="yes"/>
      <point x="585" y="586"/>
      <point x="592" y="594"/>
      <point x="592" y="600" type="curve" smooth="yes"/>
      <point x="592" y="609"/>
      <point x="578" y="613"/>
      <point x="563" y="613" type="curve" smooth="yes"/>
      <point x="555" y="613"/>
      <point x="540" y="610"/>
      <point x="521" y="604" type="curve" smooth="yes"/>
      <point x="474" y="589"/>
      <point x="421" y="575"/>
      <point x="358" y="558" type="curve"/>
      <point x="339" y="652" type="line" smooth="yes"/>
      <point x="337" y="661"/>
      <point x="331" y="670"/>
      <point x="322" y="670" type="curve" smooth="yes"/>
      <point x="310" y="670"/>
      <point x="306" y="659"/>
      <point x="306" y="648" type="curve" smooth="yes"/>
      <point x="307" y="613"/>
      <point x="310" y="583"/>
      <point x="314" y="552" type="curve"/>
      <point x="242" y="564"/>
      <point x="174" y="576"/>
      <point x="110" y="591" type="curve" smooth="yes"/>
      <point x="94" y="594"/>
      <point x="71" y="592"/>
      <point x="71" y="578" type="curve" smooth="yes"/>
      <point x="71" y="572"/>
      <point x="81" y="565"/>
      <point x="96" y="561" type="curve" smooth="yes"/>
      <point x="166" y="544"/>
      <point x="226" y="529"/>
      <point x="283" y="516" type="curve"/>
      <point x="119" y="460" type="line" smooth="yes"/>
      <point x="104" y="455"/>
      <point x="101" y="448"/>
      <point x="101" y="442" type="curve" smooth="yes"/>
      <point x="101" y="432"/>
      <point x="109" y="432"/>
      <point x="125" y="432" type="curve" smooth="yes"/>
      <point x="133" y="432"/>
      <point x="146" y="434"/>
      <point x="166" y="440" type="curve" smooth="yes"/>
      <point x="211" y="453"/>
      <point x="264" y="466"/>
      <point x="320" y="482" type="curve"/>
      <point x="329" y="390" type="line" smooth="yes"/>
      <point x="331" y="381"/>
      <point x="339" y="372"/>
      <point x="350" y="372" type="curve" smooth="yes"/>
    </contour>
  </outline>
</glyph>
<glyph name="zero" format="1">
  <advance width="960"/>
  <unicode hex="0030"/>
  <outline>
    <contour>
      <point x="470" y="-14" type="curve" smooth="yes"/>
      <point x="766" y="-14"/>
      <point x="890" y="166"/>
      <point x="890" y="316" type="curve" smooth="yes"/>
      <point x="890" y="461"/>
      <point x="762" y="630"/>
      <point x="490" y="630" type="curve" smooth="yes"/>
      <point x="194" y="630"/>
      <point x="70" y="454"/>
      <point x="70" y="302" type="curve" smooth="yes"/>
      <point x="70" y="154"/>
      <point x="198" y="-14"/>
    </contour>
    <contour>
      <point x="512" y="12" type="curve" smooth="yes"/>
      <point x="271" y="12"/>
      <point x="153" y="170"/>
      <point x="153" y="320" type="curve" smooth="yes"/>
      <point x="153" y="470"/>
      <point x="228" y="602"/>
      <point x="442" y="602" type="curve" smooth="yes"/>
      <point x="683" y="602"/>
      <point x="809" y="448"/>
      <point x="809" y="298" type="curve" smooth="yes"/>
      <point x="809" y="148"/>
      <point x="726" y="12"/>
    </contour>
  </outline>
</glyph>
<glyph name="one" format="1">
  <advance width="960"/>
  <unicode hex="0031"/>
  <outline>
    <contour>
      <point x="275" y="-3" type="curve" smooth="yes"/>
      <point x="311" y="-3"/>
      <point x="453" y="2"/>
      <point x="507" y="2" type="curve" smooth="yes"/>
      <point x="560" y="2"/>
      <point x="697" y="-3"/>
      <point x="737" y="-3" type="curve" smooth="yes"/>
      <point x="762" y="-3"/>
      <point x="768" y="2"/>
      <point x="768" y="8" type="curve" smooth="yes"/>
      <point x="768" y="14"/>
      <point x="759" y="20"/>
      <point x="730" y="22" type="curve" smooth="yes"/>
      <point x="569" y="36"/>
      <point x="545" y="46"/>
      <point x="545" y="123" type="curve" smooth="yes"/>
      <point x="545" y="557" type="line" smooth="yes"/>
      <point x="545" y="585"/>
      <point x="546" y="608"/>
      <point x="548" y="620" type="curve" smooth="yes"/>
      <point x="550" y="633"/>
      <point x="543" y="637"/>
      <point x="537" y="637" type="curve" smooth="yes"/>
      <point x="528" y="637"/>
      <point x="523" y="633"/>
      <point x="508" y="618" type="curve" smooth="yes"/>
      <point x="477" y="587"/>
      <point x="432" y="577"/>
      <point x="282" y="574" type="curve" smooth="yes"/>
      <point x="268" y="574"/>
      <point x="257" y="565"/>
      <point x="257" y="556" type="curve" smooth="yes"/>
      <point x="257" y="545"/>
      <point x="270" y="540"/>
      <point x="283" y="539" type="curve" smooth="yes"/>
      <point x="444" y="528"/>
      <point x="467" y="523"/>
      <point x="467" y="446" type="curve" smooth="yes"/>
      <point x="467" y="129" type="line" smooth="yes"/>
      <point x="467" y="50"/>
      <point x="433" y="32"/>
      <point x="274" y="23" type="curve" smooth="yes"/>
      <point x="249" y="22"/>
      <point x="242" y="14"/>
      <point x="242" y="9" type="curve" smooth="yes"/>
      <point x="242" y="3"/>
      <point x="247" y="-3"/>
    </contour>
  </outline>
</glyph>
<glyph name="two" format="1">
  <advance width="960"/>
  <unicode hex="0032"/>
  <outline>
    <contour>
      <point x="851" y="-3" type="curve" smooth="yes"/>
      <point x="865" y="-3"/>
      <point x="887" y="0"/>
      <point x="895" y="21" type="curve" smooth="yes"/>
      <point x="914" y="71"/>
      <point x="935" y="112"/>
      <point x="935" y="122" type="curve" smooth="yes"/>
      <point x="935" y="127"/>
      <point x="932" y="137"/>
      <point x="920" y="137" type="curve" smooth="yes"/>
      <point x="910" y="137"/>
      <point x="898" y="122"/>
      <point x="891" y="111" type="curve" smooth="yes"/>
      <point x="872" y="83"/>
      <point x="851" y="67"/>
      <point x="789" y="64" type="curve" smooth="yes"/>
      <point x="630" y="62"/>
      <point x="529" y="61"/>
      <point x="453" y="61" type="curve" smooth="yes"/>
      <point x="379" y="61"/>
      <point x="321" y="61"/>
      <point x="277" y="64" type="curve" smooth="yes"/>
      <point x="261" y="65"/>
      <point x="249" y="66"/>
      <point x="249" y="71" type="curve" smooth="yes"/>
      <point x="249" y="76"/>
      <point x="580" y="227"/>
      <point x="670" y="281" type="curve" smooth="yes"/>
      <point x="754" y="332"/>
      <point x="815" y="411"/>
      <point x="815" y="465" type="curve" smooth="yes"/>
      <point x="815" y="562"/>
      <point x="695" y="630"/>
      <point x="495" y="630" type="curve" smooth="yes"/>
      <point x="269" y="630"/>
      <point x="104" y="532"/>
      <point x="104" y="501" type="curve" smooth="yes"/>
      <point x="104" y="483"/>
      <point x="106" y="471"/>
      <point x="114" y="471" type="curve" smooth="yes"/>
      <point x="124" y="471"/>
      <point x="129" y="477"/>
      <point x="139" y="485" type="curve" smooth="yes"/>
      <point x="204" y="537"/>
      <point x="335" y="566"/>
      <point x="469" y="566" type="curve" smooth="yes"/>
      <point x="607" y="566"/>
      <point x="729" y="523"/>
      <point x="729" y="452" type="curve" smooth="yes"/>
      <point x="729" y="364"/>
      <point x="611" y="282"/>
      <point x="456" y="209" type="curve" smooth="yes"/>
      <point x="72" y="28" type="line" smooth="yes"/>
      <point x="60" y="22"/>
      <point x="56" y="21"/>
      <point x="56" y="15" type="curve" smooth="yes"/>
      <point x="56" y="9"/>
      <point x="86" y="-2"/>
      <point x="96" y="-2" type="curve" smooth="yes"/>
      <point x="136" y="-2"/>
      <point x="461" y="3"/>
      <point x="561" y="3" type="curve" smooth="yes"/>
      <point x="661" y="3"/>
      <point x="811" y="-3"/>
    </contour>
  </outline>
</glyph>
<glyph name="three" format="1">
  <advance width="960"/>
  <unicode hex="0033"/>
  <outline>
    <contour>
      <point x="304" y="-38" type="curve" smooth="yes"/>
      <point x="576" y="-38"/>
      <point x="860" y="53"/>
      <point x="860" y="203" type="curve" smooth="yes"/>
      <point x="860" y="288"/>
      <point x="726" y="347"/>
      <point x="556" y="347" type="curve" smooth="yes"/>
      <point x="546" y="347"/>
      <point x="546" y="351"/>
      <point x="554" y="353" type="curve"/>
      <point x="710" y="398"/>
      <point x="764" y="468"/>
      <point x="764" y="516" type="curve" smooth="yes"/>
      <point x="764" y="584"/>
      <point x="636" y="630"/>
      <point x="504" y="630" type="curve" smooth="yes"/>
      <point x="232" y="630"/>
      <point x="117" y="535"/>
      <point x="117" y="500" type="curve" smooth="yes"/>
      <point x="117" y="490"/>
      <point x="139" y="481"/>
      <point x="149" y="481" type="curve" smooth="yes"/>
      <point x="184" y="481"/>
      <point x="221" y="570"/>
      <point x="463" y="570" type="curve" smooth="yes"/>
      <point x="599" y="570"/>
      <point x="683" y="523"/>
      <point x="683" y="466" type="curve" smooth="yes"/>
      <point x="683" y="395"/>
      <point x="442" y="343"/>
      <point x="389" y="332" type="curve" smooth="yes"/>
      <point x="328" y="326"/>
      <point x="304" y="315"/>
      <point x="294" y="298" type="curve" smooth="yes"/>
      <point x="290" y="291"/>
      <point x="314" y="285"/>
      <point x="343" y="289" type="curve" smooth="yes"/>
      <point x="398" y="302"/>
      <point x="463" y="304"/>
      <point x="499" y="304" type="curve" smooth="yes"/>
      <point x="694" y="304"/>
      <point x="775" y="228"/>
      <point x="775" y="146" type="curve" smooth="yes"/>
      <point x="775" y="63"/>
      <point x="601" y="0"/>
      <point x="427" y="0" type="curve" smooth="yes"/>
      <point x="339" y="0"/>
      <point x="274" y="13"/>
      <point x="234" y="31" type="curve" smooth="yes"/>
      <point x="208" y="43"/>
      <point x="185" y="51"/>
      <point x="155" y="51" type="curve" smooth="yes"/>
      <point x="125" y="51"/>
      <point x="81" y="19"/>
      <point x="81" y="5" type="curve" smooth="yes"/>
      <point x="81" y="-11"/>
      <point x="209" y="-38"/>
    </contour>
  </outline>
</glyph>
<glyph name="four" format="1">
  <advance width="960"/>
  <unicode hex="0034"/>
  <outline>
    <contour>
      <point x="546" y="-3" type="curve" smooth="yes"/>
      <point x="624" y="-3"/>
      <point x="639" y="2"/>
      <point x="712" y="2" type="curve" smooth="yes"/>
      <point x="779" y="2"/>
      <point x="793" y="-3"/>
      <point x="855" y="-3" type="curve" smooth="yes"/>
      <point x="864" y="-3"/>
      <point x="873" y="2"/>
      <point x="873" y="8" type="curve" smooth="yes"/>
      <point x="873" y="14"/>
      <point x="857" y="20"/>
      <point x="843" y="22" type="curve" smooth="yes"/>
      <point x="757" y="34"/>
      <point x="736" y="45"/>
      <point x="736" y="84" type="curve" smooth="yes"/>
      <point x="736" y="178" type="line" smooth="yes"/>
      <point x="736" y="179"/>
      <point x="752" y="183"/>
      <point x="762" y="184" type="curve"/>
      <point x="778" y="185"/>
      <point x="800" y="186"/>
      <point x="824" y="186" type="curve" smooth="yes"/>
      <point x="856" y="186"/>
      <point x="892" y="185"/>
      <point x="922" y="185" type="curve" smooth="yes"/>
      <point x="930" y="185"/>
      <point x="964" y="207"/>
      <point x="964" y="223" type="curve" smooth="yes"/>
      <point x="964" y="227"/>
      <point x="954" y="231"/>
      <point x="942" y="231" type="curve"/>
      <point x="898" y="230"/>
      <point x="862" y="229"/>
      <point x="824" y="229" type="curve" smooth="yes"/>
      <point x="800" y="229"/>
      <point x="776" y="229"/>
      <point x="746" y="230" type="curve"/>
      <point x="740" y="230"/>
      <point x="736" y="233"/>
      <point x="736" y="236" type="curve" smooth="yes"/>
      <point x="736" y="365" type="line" smooth="yes"/>
      <point x="736" y="407"/>
      <point x="736" y="429"/>
      <point x="721" y="429" type="curve" smooth="yes"/>
      <point x="712" y="429"/>
      <point x="685" y="427"/>
      <point x="665" y="416" type="curve"/>
      <point x="657" y="412"/>
      <point x="656" y="408"/>
      <point x="656" y="394" type="curve" smooth="yes"/>
      <point x="656" y="239" type="line" smooth="yes"/>
      <point x="656" y="235"/>
      <point x="649" y="231"/>
      <point x="644" y="231" type="curve" smooth="yes"/>
      <point x="182" y="231" type="line" smooth="yes"/>
      <point x="174" y="231"/>
      <point x="178" y="237"/>
      <point x="182" y="240" type="curve" smooth="yes"/>
      <point x="723" y="628" type="line"/>
      <point x="723" y="628"/>
      <point x="739" y="642"/>
      <point x="727" y="642" type="curve" smooth="yes"/>
      <point x="706" y="642" type="line" smooth="yes"/>
      <point x="686" y="642"/>
      <point x="662" y="626"/>
      <point x="646" y="614" type="curve" smooth="yes"/>
      <point x="117" y="235" type="line" smooth="yes"/>
      <point x="91" y="217"/>
      <point x="89" y="219"/>
      <point x="39" y="188" type="curve"/>
      <point x="37" y="187"/>
      <point x="37" y="186"/>
      <point x="37" y="185" type="curve" smooth="yes"/>
      <point x="37" y="181"/>
      <point x="47" y="175"/>
      <point x="57" y="175" type="curve" smooth="yes"/>
      <point x="268" y="175"/>
      <point x="379" y="182"/>
      <point x="635" y="182" type="curve" smooth="yes"/>
      <point x="648" y="182"/>
      <point x="656" y="175"/>
      <point x="656" y="161" type="curve" smooth="yes"/>
      <point x="656" y="80" type="line" smooth="yes"/>
      <point x="656" y="48"/>
      <point x="636" y="30"/>
      <point x="546" y="22" type="curve" smooth="yes"/>
      <point x="535" y="21"/>
      <point x="520" y="17"/>
      <point x="520" y="10" type="curve" smooth="yes"/>
      <point x="520" y="1"/>
      <point x="536" y="-3"/>
    </contour>
  </outline>
</glyph>
<glyph name="six" format="1">
  <advance width="960"/>
  <unicode hex="0036"/>
  <outline>
    <contour>
      <point x="504" y="-16" type="curve" smooth="yes"/>
      <point x="698" y="-16"/>
      <point x="914" y="65"/>
      <point x="914" y="190" type="curve" smooth="yes"/>
      <point x="914" y="262"/>
      <point x="790" y="313"/>
      <point x="652" y="313" type="curve" smooth="yes"/>
      <point x="578" y="313"/>
      <point x="486" y="291"/>
      <point x="456" y="280" type="curve" smooth="yes"/>
      <point x="434" y="272"/>
      <point x="422" y="267"/>
      <point x="402" y="256" type="curve" smooth="yes"/>
      <point x="388" y="248"/>
      <point x="392" y="239"/>
      <point x="416" y="245" type="curve" smooth="yes"/>
      <point x="473" y="259"/>
      <point x="529" y="260"/>
      <point x="616" y="260" type="curve" smooth="yes"/>
      <point x="749" y="260"/>
      <point x="844" y="203"/>
      <point x="844" y="142" type="curve" smooth="yes"/>
      <point x="844" y="59"/>
      <point x="711" y="21"/>
      <point x="566" y="22" type="curve" smooth="yes"/>
      <point x="388" y="23"/>
      <point x="186" y="84"/>
      <point x="180" y="195" type="curve" smooth="yes"/>
      <point x="174" y="299"/>
      <point x="314" y="408"/>
      <point x="389" y="456" type="curve" smooth="yes"/>
      <point x="503" y="529"/>
      <point x="643" y="576"/>
      <point x="847" y="614" type="curve" smooth="yes"/>
      <point x="863" y="617"/>
      <point x="893" y="621"/>
      <point x="906" y="634" type="curve" smooth="yes"/>
      <point x="910" y="638"/>
      <point x="894" y="644"/>
      <point x="870" y="641" type="curve" smooth="yes"/>
      <point x="624" y="610"/>
      <point x="436" y="528"/>
      <point x="336" y="477" type="curve" smooth="yes"/>
      <point x="260" y="438"/>
      <point x="94" y="342"/>
      <point x="94" y="193" type="curve" smooth="yes"/>
      <point x="94" y="53"/>
      <point x="298" y="-16"/>
    </contour>
  </outline>
</glyph>
<glyph name="seven" format="1">
  <advance width="960"/>
  <unicode hex="0037"/>
  <outline>
    <contour>
      <point x="204" y="-32" type="curve" smooth="yes"/>
      <point x="210" y="-32"/>
      <point x="226" y="-17"/>
      <point x="237" y="-7" type="curve" smooth="yes"/>
      <point x="827" y="538" type="line" smooth="yes"/>
      <point x="846" y="556"/>
      <point x="903" y="592"/>
      <point x="903" y="608" type="curve" smooth="yes"/>
      <point x="903" y="613"/>
      <point x="897" y="621"/>
      <point x="891" y="621" type="curve" smooth="yes"/>
      <point x="853" y="621"/>
      <point x="662" y="616"/>
      <point x="466" y="616" type="curve" smooth="yes"/>
      <point x="372" y="616"/>
      <point x="328" y="617"/>
      <point x="268" y="617" type="curve" smooth="yes"/>
      <point x="184" y="617"/>
      <point x="106" y="626"/>
      <point x="100" y="626" type="curve" smooth="yes"/>
      <point x="94" y="626"/>
      <point x="82" y="624"/>
      <point x="80" y="615" type="curve" smooth="yes"/>
      <point x="74" y="590"/>
      <point x="62" y="545"/>
      <point x="48" y="516" type="curve"/>
      <point x="46" y="511"/>
      <point x="40" y="501"/>
      <point x="40" y="494" type="curve" smooth="yes"/>
      <point x="40" y="489"/>
      <point x="42" y="480"/>
      <point x="54" y="480" type="curve" smooth="yes"/>
      <point x="69" y="480"/>
      <point x="84" y="498"/>
      <point x="90" y="505" type="curve" smooth="yes"/>
      <point x="122" y="542"/>
      <point x="156" y="551"/>
      <point x="204" y="551" type="curve" smooth="yes"/>
      <point x="816" y="551" type="line"/>
      <point x="839" y="589" type="line"/>
      <point x="231" y="35" type="line" smooth="yes"/>
      <point x="213" y="18"/>
      <point x="181" y="-2"/>
      <point x="181" y="-10" type="curve" smooth="yes"/>
      <point x="181" y="-21"/>
      <point x="190" y="-32"/>
    </contour>
  </outline>
</glyph>
<glyph name="eight" format="1">
  <advance width="960"/>
  <unicode hex="0038"/>
  <outline>
    <contour>
      <point x="460" y="-14" type="curve" smooth="yes"/>
      <point x="656" y="-14"/>
      <point x="854" y="60"/>
      <point x="854" y="164" type="curve" smooth="yes"/>
      <point x="854" y="241"/>
      <point x="763" y="293"/>
      <point x="609" y="342" type="curve" smooth="yes"/>
      <point x="587" y="349"/>
      <point x="585" y="351"/>
      <point x="619" y="363" type="curve" smooth="yes"/>
      <point x="665" y="379"/>
      <point x="682" y="388"/>
      <point x="720" y="404" type="curve" smooth="yes"/>
      <point x="766" y="424"/>
      <point x="818" y="448"/>
      <point x="818" y="496" type="curve" smooth="yes"/>
      <point x="818" y="577"/>
      <point x="660" y="630"/>
      <point x="500" y="630" type="curve" smooth="yes"/>
      <point x="322" y="630"/>
      <point x="136" y="567"/>
      <point x="136" y="489" type="curve" smooth="yes"/>
      <point x="136" y="404"/>
      <point x="256" y="365"/>
      <point x="374" y="319" type="curve" smooth="yes"/>
      <point x="390" y="313"/>
      <point x="398" y="311"/>
      <point x="380" y="306" type="curve" smooth="yes"/>
      <point x="278" y="278"/>
      <point x="106" y="229"/>
      <point x="106" y="141" type="curve" smooth="yes"/>
      <point x="106" y="49"/>
      <point x="276" y="-14"/>
    </contour>
    <contour>
      <point x="491" y="15" type="curve" smooth="yes"/>
      <point x="298" y="15"/>
      <point x="184" y="87"/>
      <point x="184" y="157" type="curve" smooth="yes"/>
      <point x="184" y="221"/>
      <point x="269" y="257"/>
      <point x="388" y="291" type="curve" smooth="yes"/>
      <point x="402" y="295"/>
      <point x="413" y="297"/>
      <point x="421" y="297" type="curve" smooth="yes"/>
      <point x="438" y="297"/>
      <point x="454" y="293"/>
      <point x="477" y="287" type="curve"/>
      <point x="637" y="247"/>
      <point x="776" y="186"/>
      <point x="776" y="124" type="curve" smooth="yes"/>
      <point x="776" y="65"/>
      <point x="654" y="15"/>
    </contour>
    <contour>
      <point x="566" y="361" type="curve"/>
      <point x="554" y="358"/>
      <point x="538" y="361"/>
      <point x="526" y="364" type="curve"/>
      <point x="330" y="421"/>
      <point x="214" y="432"/>
      <point x="214" y="509" type="curve" smooth="yes"/>
      <point x="214" y="563"/>
      <point x="366" y="606"/>
      <point x="494" y="606" type="curve" smooth="yes"/>
      <point x="657" y="606"/>
      <point x="737" y="559"/>
      <point x="737" y="503" type="curve" smooth="yes"/>
      <point x="737" y="442"/>
      <point x="695" y="399"/>
    </contour>
  </outline>
</glyph>
<glyph name="question" format="1">
  <advance width="752"/>
  <unicode hex="003F"/>
  <outline>
    <contour>
      <point x="250" y="181"/>
      <point x="253" y="194"/>
      <point x="253" y="204" type="curve" smooth="yes"/>
      <point x="253" y="236"/>
      <point x="269" y="255"/>
      <point x="366" y="287" type="curve" smooth="yes"/>
      <point x="430" y="308"/>
      <point x="450" y="310"/>
      <point x="538" y="334" type="curve" smooth="yes"/>
      <point x="578" y="345"/>
      <point x="622" y="369"/>
      <point x="622" y="418" type="curve" smooth="yes"/>
      <point x="622" y="469"/>
      <point x="548" y="555"/>
      <point x="436" y="611" type="curve" smooth="yes"/>
      <point x="370" y="644"/>
      <point x="286" y="661"/>
      <point x="220" y="661" type="curve" smooth="yes"/>
      <point x="171" y="661"/>
      <point x="140" y="646"/>
      <point x="140" y="625" type="curve" smooth="yes"/>
      <point x="140" y="598"/>
      <point x="154" y="569"/>
      <point x="202" y="569" type="curve" smooth="yes"/>
      <point x="217" y="569"/>
      <point x="233" y="575"/>
      <point x="248" y="581" type="curve" smooth="yes"/>
      <point x="264" y="587"/>
      <point x="281" y="593"/>
      <point x="299" y="593" type="curve" smooth="yes"/>
      <point x="453" y="593"/>
      <point x="568" y="524"/>
      <point x="568" y="458" type="curve" smooth="yes"/>
      <point x="568" y="429"/>
      <point x="492" y="402"/>
      <point x="428" y="386" type="curve" smooth="yes"/>
      <point x="283" y="350"/>
      <point x="196" y="329"/>
      <point x="196" y="280" type="curve" smooth="yes"/>
      <point x="196" y="250"/>
      <point x="204" y="232"/>
      <point x="215" y="210" type="curve" smooth="yes"/>
      <point x="223" y="194"/>
      <point x="226" y="181"/>
      <point x="240" y="181" type="curve" smooth="yes"/>
    </contour>
    <contour>
      <point x="263" y="-19"/>
      <point x="296" y="2"/>
      <point x="303" y="34" type="curve" smooth="yes"/>
      <point x="310" y="66"/>
      <point x="290" y="98"/>
      <point x="258" y="107" type="curve" smooth="yes"/>
      <point x="227" y="116"/>
      <point x="194" y="93"/>
      <point x="187" y="61" type="curve" smooth="yes"/>
      <point x="180" y="28"/>
      <point x="200" y="-3"/>
      <point x="231" y="-11" type="curve" smooth="yes"/>
    </contour>
  </outline>
</glyph>
<glyph name="A" format="1">
  <advance width="1377"/>
  <unicode hex="0041"/>
  <outline>
    <contour>
      <point x="46" y="-5" type="curve" smooth="yes"/>
      <point x="104" y="-5"/>
      <point x="178" y="1"/>
      <point x="255" y="1" type="curve" smooth="yes"/>
      <point x="320" y="1"/>
      <point x="382" y="-1"/>
      <point x="413" y="-1" type="curve" smooth="yes"/>
      <point x="443" y="-1"/>
      <point x="464" y="2"/>
      <point x="464" y="10" type="curve" smooth="yes"/>
      <point x="464" y="19"/>
      <point x="444" y="24"/>
      <point x="398" y="30" type="curve" smooth="yes"/>
      <point x="334" y="38"/>
      <point x="282" y="58"/>
      <point x="282" y="87" type="curve" smooth="yes"/>
      <point x="282" y="100"/>
      <point x="357" y="205"/>
      <point x="375" y="231" type="curve" smooth="yes"/>
      <point x="385" y="245"/>
      <point x="397" y="249"/>
      <point x="409" y="249" type="curve" smooth="yes"/>
      <point x="923" y="249" type="line" smooth="yes"/>
      <point x="959" y="249"/>
      <point x="971" y="248"/>
      <point x="977" y="238" type="curve" smooth="yes"/>
      <point x="1011" y="187"/>
      <point x="1074" y="105"/>
      <point x="1074" y="76" type="curve" smooth="yes"/>
      <point x="1074" y="54"/>
      <point x="1047" y="38"/>
      <point x="979" y="31" type="curve" smooth="yes"/>
      <point x="950" y="28"/>
      <point x="927" y="21"/>
      <point x="927" y="12" type="curve" smooth="yes"/>
      <point x="927" y="4"/>
      <point x="946" y="0"/>
      <point x="972" y="0" type="curve" smooth="yes"/>
      <point x="1010" y="0"/>
      <point x="1075" y="1"/>
      <point x="1126" y="1" type="curve" smooth="yes"/>
      <point x="1196" y="1"/>
      <point x="1298" y="-5"/>
      <point x="1342" y="-5" type="curve" smooth="yes"/>
      <point x="1368" y="-5"/>
      <point x="1387" y="-3"/>
      <point x="1387" y="5" type="curve" smooth="yes"/>
      <point x="1387" y="14"/>
      <point x="1369" y="24"/>
      <point x="1329" y="28" type="curve" smooth="yes"/>
      <point x="1258" y="35"/>
      <point x="1208" y="52"/>
      <point x="1150" y="128" type="curve" smooth="yes"/>
      <point x="1077" y="223"/>
      <point x="904" y="467"/>
      <point x="764" y="662" type="curve" smooth="yes"/>
      <point x="758" y="670"/>
      <point x="756" y="678"/>
      <point x="750" y="684" type="curve"/>
      <point x="748" y="686"/>
      <point x="740" y="686"/>
      <point x="738" y="685" type="curve"/>
      <point x="729" y="679"/>
      <point x="721" y="659"/>
      <point x="693" y="651" type="curve" smooth="yes"/>
      <point x="664" y="643"/>
      <point x="636" y="640"/>
      <point x="607" y="636" type="curve"/>
      <point x="603" y="615"/>
      <point x="593" y="597"/>
      <point x="579" y="578" type="curve" smooth="yes"/>
      <point x="443" y="393"/>
      <point x="361" y="280"/>
      <point x="211" y="108" type="curve" smooth="yes"/>
      <point x="169" y="60"/>
      <point x="117" y="40"/>
      <point x="56" y="31" type="curve" smooth="yes"/>
      <point x="16" y="25"/>
      <point x="-4" y="17"/>
      <point x="-4" y="8" type="curve" smooth="yes"/>
      <point x="-4" y="0"/>
      <point x="17" y="-5"/>
    </contour>
    <contour>
      <point x="473" y="282" type="line" smooth="yes"/>
      <point x="447" y="282"/>
      <point x="431" y="282"/>
      <point x="431" y="289" type="curve" smooth="yes"/>
      <point x="431" y="291"/>
      <point x="433" y="294"/>
      <point x="435" y="297" type="curve"/>
      <point x="625" y="564" type="line" smooth="yes"/>
      <point x="644" y="591"/>
      <point x="670" y="610"/>
      <point x="688" y="610" type="curve" smooth="yes"/>
      <point x="721" y="610"/>
      <point x="745" y="584"/>
      <point x="759" y="564" type="curve" smooth="yes"/>
      <point x="934" y="297" type="line"/>
      <point x="936" y="293"/>
      <point x="938" y="289"/>
      <point x="938" y="287" type="curve" smooth="yes"/>
      <point x="938" y="282"/>
      <point x="930" y="282"/>
      <point x="910" y="282" type="curve" smooth="yes"/>
    </contour>
  </outline>
</glyph>
<glyph name="B" format="1">
  <advance width="1174"/>
  <unicode hex="0042"/>
  <outline>
    <contour>
      <point x="96" y="-5" type="curve" smooth="yes"/>
      <point x="212" y="-5"/>
      <point x="252" y="0"/>
      <point x="356" y="0" type="curve" smooth="yes"/>
      <point x="436" y="0"/>
      <point x="510" y="-4"/>
      <point x="546" y="-4" type="curve" smooth="yes"/>
      <point x="673" y="-4"/>
      <point x="802" y="9"/>
      <point x="903" y="37" type="curve" smooth="yes"/>
      <point x="1016" y="69"/>
      <point x="1094" y="121"/>
      <point x="1094" y="196" type="curve" smooth="yes"/>
      <point x="1094" y="313"/>
      <point x="886" y="349"/>
      <point x="757" y="363" type="curve" smooth="yes"/>
      <point x="745" y="364"/>
      <point x="746" y="372"/>
      <point x="759" y="373" type="curve" smooth="yes"/>
      <point x="835" y="378"/>
      <point x="932" y="395"/>
      <point x="978" y="416" type="curve" smooth="yes"/>
      <point x="1010" y="431"/>
      <point x="1052" y="468"/>
      <point x="1052" y="513" type="curve" smooth="yes"/>
      <point x="1052" y="623"/>
      <point x="885" y="664"/>
      <point x="546" y="664" type="curve" smooth="yes"/>
      <point x="430" y="664"/>
      <point x="402" y="659"/>
      <point x="326" y="659" type="curve" smooth="yes"/>
      <point x="244" y="659"/>
      <point x="226" y="660"/>
      <point x="118" y="660" type="curve" smooth="yes"/>
      <point x="84" y="660"/>
      <point x="60" y="657"/>
      <point x="52" y="648" type="curve" smooth="yes"/>
      <point x="52" y="639"/>
      <point x="64" y="630"/>
      <point x="93" y="628" type="curve" smooth="yes"/>
      <point x="155" y="624"/>
      <point x="177" y="603"/>
      <point x="177" y="555" type="curve" smooth="yes"/>
      <point x="177" y="100" type="line" smooth="yes"/>
      <point x="177" y="52"/>
      <point x="142" y="33"/>
      <point x="79" y="24" type="curve" smooth="yes"/>
      <point x="51" y="20"/>
      <point x="38" y="15"/>
      <point x="38" y="6" type="curve" smooth="yes"/>
      <point x="38" y="-2"/>
      <point x="62" y="-5"/>
    </contour>
    <contour>
      <point x="496" y="37" type="curve" smooth="yes"/>
      <point x="341" y="37"/>
      <point x="257" y="53"/>
      <point x="257" y="109" type="curve" smooth="yes"/>
      <point x="257" y="310" type="line" smooth="yes"/>
      <point x="257" y="323"/>
      <point x="299" y="346"/>
      <point x="429" y="346" type="curve" smooth="yes"/>
      <point x="641" y="346"/>
      <point x="784" y="337"/>
      <point x="873" y="313" type="curve" smooth="yes"/>
      <point x="962" y="289"/>
      <point x="998" y="250"/>
      <point x="998" y="191" type="curve" smooth="yes"/>
      <point x="998" y="91"/>
      <point x="864" y="37"/>
    </contour>
    <contour>
      <point x="411" y="375" type="curve" smooth="yes"/>
      <point x="357" y="375"/>
      <point x="257" y="377"/>
      <point x="257" y="412" type="curve" smooth="yes"/>
      <point x="257" y="588" type="line" smooth="yes"/>
      <point x="257" y="618"/>
      <point x="294" y="633"/>
      <point x="478" y="633" type="curve" smooth="yes"/>
      <point x="890" y="633"/>
      <point x="965" y="580"/>
      <point x="965" y="500" type="curve" smooth="yes"/>
      <point x="965" y="441"/>
      <point x="861" y="412"/>
      <point x="814" y="404" type="curve" smooth="yes"/>
      <point x="687" y="383"/>
      <point x="541" y="375"/>
    </contour>
  </outline>
</glyph>
<glyph name="D" format="1">
  <advance width="1491"/>
  <unicode hex="0044"/>
  <outline>
    <contour>
      <point x="733" y="-7" type="curve" smooth="yes"/>
      <point x="1111" y="-7"/>
      <point x="1421" y="150"/>
      <point x="1421" y="342" type="curve" smooth="yes"/>
      <point x="1421" y="517"/>
      <point x="1207" y="659"/>
      <point x="672" y="659" type="curve" smooth="yes"/>
      <point x="619" y="659"/>
      <point x="419" y="651"/>
      <point x="334" y="651" type="curve" smooth="yes"/>
      <point x="240" y="651"/>
      <point x="216" y="653"/>
      <point x="115" y="653" type="curve" smooth="yes"/>
      <point x="82" y="653"/>
      <point x="58" y="649"/>
      <point x="58" y="640" type="curve" smooth="yes"/>
      <point x="58" y="629"/>
      <point x="72" y="626"/>
      <point x="103" y="622" type="curve" smooth="yes"/>
      <point x="172" y="613"/>
      <point x="195" y="597"/>
      <point x="195" y="549" type="curve" smooth="yes"/>
      <point x="195" y="99" type="line" smooth="yes"/>
      <point x="195" y="51"/>
      <point x="172" y="33"/>
      <point x="103" y="24" type="curve" smooth="yes"/>
      <point x="72" y="20"/>
      <point x="58" y="19"/>
      <point x="58" y="8" type="curve" smooth="yes"/>
      <point x="58" y="-2"/>
      <point x="82" y="-5"/>
      <point x="115" y="-5" type="curve" smooth="yes"/>
      <point x="220" y="-5"/>
      <point x="244" y="0"/>
      <point x="323" y="0" type="curve" smooth="yes"/>
      <point x="479" y="0"/>
      <point x="694" y="-7"/>
    </contour>
    <contour>
      <point x="656" y="28" type="curve" smooth="yes"/>
      <point x="364" y="28"/>
      <point x="277" y="56"/>
      <point x="277" y="121" type="curve" smooth="yes"/>
      <point x="277" y="567" type="line" smooth="yes"/>
      <point x="277" y="613"/>
      <point x="317" y="628"/>
      <point x="621" y="628" type="curve" smooth="yes"/>
      <point x="1005" y="628"/>
      <point x="1326" y="532"/>
      <point x="1326" y="325" type="curve" smooth="yes"/>
      <point x="1326" y="151"/>
      <point x="1051" y="28"/>
    </contour>
  </outline>
</glyph>
<glyph name="E" format="1">
  <advance width="1112"/>
  <unicode hex="0045"/>
  <outline>
    <contour>
      <point x="132" y="-5" type="curve" smooth="yes"/>
      <point x="240" y="-5"/>
      <point x="216" y="1"/>
      <point x="362" y="1" type="curve" smooth="yes"/>
      <point x="562" y="1"/>
      <point x="748" y="-5"/>
      <point x="1004" y="-5" type="curve" smooth="yes"/>
      <point x="1020" y="-5"/>
      <point x="1023" y="1"/>
      <point x="1028" y="12" type="curve" smooth="yes"/>
      <point x="1040" y="39"/>
      <point x="1062" y="130"/>
      <point x="1062" y="148" type="curve" smooth="yes"/>
      <point x="1062" y="156"/>
      <point x="1061" y="160"/>
      <point x="1047" y="162" type="curve" smooth="yes"/>
      <point x="1039" y="163"/>
      <point x="1036" y="155"/>
      <point x="1032" y="147" type="curve" smooth="yes"/>
      <point x="1011" y="105"/>
      <point x="997" y="69"/>
      <point x="974" y="52" type="curve" smooth="yes"/>
      <point x="953" y="36"/>
      <point x="919" y="35"/>
      <point x="870" y="35" type="curve" smooth="yes"/>
      <point x="385" y="35" type="line" smooth="yes"/>
      <point x="334" y="35"/>
      <point x="310" y="51"/>
      <point x="310" y="102" type="curve" smooth="yes"/>
      <point x="310" y="294" type="line" smooth="yes"/>
      <point x="310" y="317"/>
      <point x="323" y="320"/>
      <point x="349" y="320" type="curve" smooth="yes"/>
      <point x="774" y="320" type="line" smooth="yes"/>
      <point x="804" y="320"/>
      <point x="814" y="304"/>
      <point x="824" y="260" type="curve" smooth="yes"/>
      <point x="829" y="239"/>
      <point x="838" y="228"/>
      <point x="848" y="228" type="curve" smooth="yes"/>
      <point x="857" y="228"/>
      <point x="858" y="236"/>
      <point x="858" y="245" type="curve" smooth="yes"/>
      <point x="858" y="253"/>
      <point x="854" y="317"/>
      <point x="854" y="337" type="curve" smooth="yes"/>
      <point x="854" y="353"/>
      <point x="860" y="413"/>
      <point x="860" y="422" type="curve" smooth="yes"/>
      <point x="860" y="432"/>
      <point x="852" y="438"/>
      <point x="846" y="438" type="curve" smooth="yes"/>
      <point x="838" y="438"/>
      <point x="832" y="431"/>
      <point x="828" y="416" type="curve" smooth="yes"/>
      <point x="816" y="371"/>
      <point x="801" y="352"/>
      <point x="767" y="352" type="curve" smooth="yes"/>
      <point x="331" y="352" type="line" smooth="yes"/>
      <point x="320" y="352"/>
      <point x="310" y="362"/>
      <point x="310" y="374" type="curve" smooth="yes"/>
      <point x="310" y="573" type="line" smooth="yes"/>
      <point x="310" y="608"/>
      <point x="332" y="618"/>
      <point x="362" y="618" type="curve" smooth="yes"/>
      <point x="865" y="618" type="line" smooth="yes"/>
      <point x="927" y="618"/>
      <point x="941" y="609"/>
      <point x="957" y="591" type="curve" smooth="yes"/>
      <point x="969" y="577"/>
      <point x="976" y="536"/>
      <point x="980" y="520" type="curve" smooth="yes"/>
      <point x="983" y="509"/>
      <point x="988" y="506"/>
      <point x="995" y="506" type="curve" smooth="yes"/>
      <point x="1003" y="506"/>
      <point x="1010" y="509"/>
      <point x="1010" y="521" type="curve" smooth="yes"/>
      <point x="1010" y="548"/>
      <point x="1000" y="606"/>
      <point x="990" y="644" type="curve" smooth="yes"/>
      <point x="988" y="651"/>
      <point x="968" y="653"/>
      <point x="954" y="653" type="curve" smooth="yes"/>
      <point x="944" y="653"/>
      <point x="864" y="652"/>
      <point x="774" y="651" type="curve" smooth="yes"/>
      <point x="690" y="651"/>
      <point x="588" y="650"/>
      <point x="500" y="650" type="curve" smooth="yes"/>
      <point x="360" y="650"/>
      <point x="296" y="653"/>
      <point x="146" y="653" type="curve" smooth="yes"/>
      <point x="112" y="653"/>
      <point x="88" y="650"/>
      <point x="84" y="642" type="curve" smooth="yes"/>
      <point x="84" y="633"/>
      <point x="98" y="626"/>
      <point x="132" y="622" type="curve" smooth="yes"/>
      <point x="203" y="613"/>
      <point x="228" y="597"/>
      <point x="228" y="549" type="curve" smooth="yes"/>
      <point x="228" y="99" type="line" smooth="yes"/>
      <point x="228" y="51"/>
      <point x="193" y="33"/>
      <point x="121" y="24" type="curve" smooth="yes"/>
      <point x="88" y="20"/>
      <point x="74" y="15"/>
      <point x="74" y="6" type="curve" smooth="yes"/>
      <point x="74" y="-2"/>
      <point x="98" y="-5"/>
    </contour>
  </outline>
</glyph>
<glyph name="F" format="1">
  <advance width="985"/>
  <unicode hex="0046"/>
  <outline>
    <contour>
      <point x="115" y="-3" type="curve" smooth="yes"/>
      <point x="189" y="-3"/>
      <point x="213" y="0"/>
      <point x="277" y="0" type="curve" smooth="yes"/>
      <point x="335" y="0"/>
      <point x="365" y="-3"/>
      <point x="439" y="-3" type="curve" smooth="yes"/>
      <point x="462" y="-3"/>
      <point x="479" y="0"/>
      <point x="479" y="8" type="curve" smooth="yes"/>
      <point x="479" y="17"/>
      <point x="464" y="24"/>
      <point x="429" y="28" type="curve" smooth="yes"/>
      <point x="336" y="39"/>
      <point x="310" y="57"/>
      <point x="310" y="102" type="curve" smooth="yes"/>
      <point x="310" y="166"/>
      <point x="310" y="230"/>
      <point x="310" y="294" type="curve" smooth="yes"/>
      <point x="310" y="317"/>
      <point x="323" y="320"/>
      <point x="349" y="320" type="curve" smooth="yes"/>
      <point x="417" y="320"/>
      <point x="484" y="320"/>
      <point x="552" y="320" type="curve" smooth="yes"/>
      <point x="615" y="320"/>
      <point x="678" y="320"/>
      <point x="741" y="320" type="curve" smooth="yes"/>
      <point x="771" y="320"/>
      <point x="781" y="304"/>
      <point x="791" y="260" type="curve" smooth="yes"/>
      <point x="796" y="239"/>
      <point x="805" y="228"/>
      <point x="815" y="228" type="curve" smooth="yes"/>
      <point x="824" y="228"/>
      <point x="825" y="236"/>
      <point x="825" y="245" type="curve" smooth="yes"/>
      <point x="825" y="253"/>
      <point x="821" y="317"/>
      <point x="821" y="337" type="curve" smooth="yes"/>
      <point x="821" y="353"/>
      <point x="827" y="413"/>
      <point x="827" y="422" type="curve" smooth="yes"/>
      <point x="827" y="432"/>
      <point x="819" y="438"/>
      <point x="813" y="438" type="curve" smooth="yes"/>
      <point x="805" y="438"/>
      <point x="799" y="431"/>
      <point x="795" y="416" type="curve" smooth="yes"/>
      <point x="783" y="371"/>
      <point x="768" y="352"/>
      <point x="734" y="352" type="curve" smooth="yes"/>
      <point x="600" y="352"/>
      <point x="465" y="352"/>
      <point x="331" y="352" type="curve" smooth="yes"/>
      <point x="320" y="352"/>
      <point x="310" y="362"/>
      <point x="310" y="374" type="curve" smooth="yes"/>
      <point x="310" y="406"/>
      <point x="310" y="437"/>
      <point x="310" y="469" type="curve" smooth="yes"/>
      <point x="310" y="504"/>
      <point x="310" y="538"/>
      <point x="310" y="573" type="curve" smooth="yes"/>
      <point x="310" y="608"/>
      <point x="332" y="618"/>
      <point x="362" y="618" type="curve" smooth="yes"/>
      <point x="795" y="618" type="line" smooth="yes"/>
      <point x="857" y="618"/>
      <point x="871" y="609"/>
      <point x="887" y="591" type="curve" smooth="yes"/>
      <point x="899" y="577"/>
      <point x="906" y="536"/>
      <point x="910" y="520" type="curve" smooth="yes"/>
      <point x="913" y="509"/>
      <point x="918" y="506"/>
      <point x="925" y="506" type="curve" smooth="yes"/>
      <point x="933" y="506"/>
      <point x="940" y="509"/>
      <point x="940" y="521" type="curve" smooth="yes"/>
      <point x="940" y="548"/>
      <point x="931" y="606"/>
      <point x="920" y="644" type="curve" smooth="yes"/>
      <point x="918" y="651"/>
      <point x="898" y="653"/>
      <point x="884" y="653" type="curve" smooth="yes"/>
      <point x="874" y="653"/>
      <point x="794" y="652"/>
      <point x="704" y="651" type="curve" smooth="yes"/>
      <point x="620" y="650"/>
      <point x="448" y="650"/>
      <point x="360" y="650" type="curve" smooth="yes"/>
      <point x="274" y="650"/>
      <point x="193" y="653"/>
      <point x="146" y="653" type="curve" smooth="yes"/>
      <point x="112" y="653"/>
      <point x="88" y="650"/>
      <point x="84" y="642" type="curve" smooth="yes"/>
      <point x="84" y="633"/>
      <point x="98" y="626"/>
      <point x="132" y="622" type="curve" smooth="yes"/>
      <point x="203" y="613"/>
      <point x="228" y="597"/>
      <point x="228" y="549" type="curve" smooth="yes"/>
      <point x="228" y="99" type="line" smooth="yes"/>
      <point x="228" y="51"/>
      <point x="193" y="33"/>
      <point x="121" y="24" type="curve" smooth="yes"/>
      <point x="88" y="20"/>
      <point x="74" y="15"/>
      <point x="74" y="6" type="curve" smooth="yes"/>
      <point x="74" y="-2"/>
      <point x="92" y="-3"/>
    </contour>
  </outline>
</glyph>
<glyph name="H" format="1">
  <advance width="1628"/>
  <unicode hex="0048"/>
  <outline>
    <contour>
      <point x="115" y="-3" type="curve" smooth="yes"/>
      <point x="196" y="-3"/>
      <point x="200" y="0"/>
      <point x="257" y="0" type="curve" smooth="yes"/>
      <point x="316" y="0"/>
      <point x="324" y="-3"/>
      <point x="394" y="-3" type="curve" smooth="yes"/>
      <point x="419" y="-3"/>
      <point x="430" y="2"/>
      <point x="430" y="10" type="curve" smooth="yes"/>
      <point x="430" y="19"/>
      <point x="417" y="24"/>
      <point x="383" y="28" type="curve" smooth="yes"/>
      <point x="307" y="37"/>
      <point x="292" y="48"/>
      <point x="292" y="99" type="curve" smooth="yes"/>
      <point x="292" y="290" type="line" smooth="yes"/>
      <point x="292" y="303"/>
      <point x="297" y="307"/>
      <point x="304" y="307" type="curve" smooth="yes"/>
      <point x="1318" y="307" type="line" smooth="yes"/>
      <point x="1325" y="307"/>
      <point x="1330" y="303"/>
      <point x="1330" y="290" type="curve" smooth="yes"/>
      <point x="1330" y="99" type="line" smooth="yes"/>
      <point x="1330" y="48"/>
      <point x="1315" y="37"/>
      <point x="1239" y="28" type="curve" smooth="yes"/>
      <point x="1205" y="24"/>
      <point x="1192" y="19"/>
      <point x="1192" y="10" type="curve" smooth="yes"/>
      <point x="1192" y="2"/>
      <point x="1203" y="-3"/>
      <point x="1228" y="-3" type="curve" smooth="yes"/>
      <point x="1298" y="-3"/>
      <point x="1306" y="0"/>
      <point x="1365" y="0" type="curve" smooth="yes"/>
      <point x="1422" y="0"/>
      <point x="1426" y="-3"/>
      <point x="1507" y="-3" type="curve" smooth="yes"/>
      <point x="1534" y="-3"/>
      <point x="1548" y="2"/>
      <point x="1548" y="10" type="curve" smooth="yes"/>
      <point x="1548" y="19"/>
      <point x="1532" y="24"/>
      <point x="1494" y="28" type="curve" smooth="yes"/>
      <point x="1419" y="36"/>
      <point x="1410" y="48"/>
      <point x="1410" y="99" type="curve" smooth="yes"/>
      <point x="1410" y="551" type="line" smooth="yes"/>
      <point x="1410" y="602"/>
      <point x="1419" y="614"/>
      <point x="1494" y="622" type="curve" smooth="yes"/>
      <point x="1532" y="626"/>
      <point x="1548" y="631"/>
      <point x="1548" y="640" type="curve" smooth="yes"/>
      <point x="1548" y="648"/>
      <point x="1534" y="653"/>
      <point x="1507" y="653" type="curve" smooth="yes"/>
      <point x="1426" y="653"/>
      <point x="1422" y="650"/>
      <point x="1365" y="650" type="curve" smooth="yes"/>
      <point x="1306" y="650"/>
      <point x="1298" y="653"/>
      <point x="1228" y="653" type="curve" smooth="yes"/>
      <point x="1203" y="653"/>
      <point x="1192" y="648"/>
      <point x="1192" y="640" type="curve" smooth="yes"/>
      <point x="1192" y="631"/>
      <point x="1205" y="626"/>
      <point x="1239" y="622" type="curve" smooth="yes"/>
      <point x="1315" y="613"/>
      <point x="1330" y="602"/>
      <point x="1330" y="551" type="curve" smooth="yes"/>
      <point x="1330" y="362" type="line" smooth="yes"/>
      <point x="1330" y="349"/>
      <point x="1325" y="345"/>
      <point x="1318" y="345" type="curve" smooth="yes"/>
      <point x="304" y="345" type="line" smooth="yes"/>
      <point x="297" y="345"/>
      <point x="292" y="349"/>
      <point x="292" y="362" type="curve" smooth="yes"/>
      <point x="292" y="551" type="line" smooth="yes"/>
      <point x="292" y="602"/>
      <point x="307" y="613"/>
      <point x="383" y="622" type="curve" smooth="yes"/>
      <point x="417" y="626"/>
      <point x="430" y="631"/>
      <point x="430" y="640" type="curve" smooth="yes"/>
      <point x="430" y="648"/>
      <point x="419" y="653"/>
      <point x="394" y="653" type="curve" smooth="yes"/>
      <point x="324" y="653"/>
      <point x="316" y="650"/>
      <point x="257" y="650" type="curve" smooth="yes"/>
      <point x="200" y="650"/>
      <point x="196" y="653"/>
      <point x="115" y="653" type="curve" smooth="yes"/>
      <point x="88" y="653"/>
      <point x="74" y="648"/>
      <point x="74" y="640" type="curve" smooth="yes"/>
      <point x="74" y="631"/>
      <point x="90" y="626"/>
      <point x="128" y="622" type="curve" smooth="yes"/>
      <point x="203" y="614"/>
      <point x="212" y="602"/>
      <point x="212" y="551" type="curve" smooth="yes"/>
      <point x="212" y="99" type="line" smooth="yes"/>
      <point x="212" y="48"/>
      <point x="203" y="36"/>
      <point x="128" y="28" type="curve" smooth="yes"/>
      <point x="90" y="24"/>
      <point x="74" y="19"/>
      <point x="74" y="10" type="curve" smooth="yes"/>
      <point x="74" y="2"/>
      <point x="88" y="-3"/>
    </contour>
  </outline>
</glyph>
<glyph name="I" format="1">
  <advance width="465"/>
  <unicode hex="0049"/>
  <outline>
    <contour>
      <point x="78" y="-3" type="curve" smooth="yes"/>
      <point x="152" y="-3"/>
      <point x="176" y="0"/>
      <point x="240" y="0" type="curve" smooth="yes"/>
      <point x="298" y="0"/>
      <point x="315" y="-3"/>
      <point x="389" y="-3" type="curve" smooth="yes"/>
      <point x="412" y="-3"/>
      <point x="429" y="0"/>
      <point x="429" y="8" type="curve" smooth="yes"/>
      <point x="429" y="17"/>
      <point x="414" y="24"/>
      <point x="379" y="28" type="curve" smooth="yes"/>
      <point x="302" y="37"/>
      <point x="270" y="53"/>
      <point x="270" y="100" type="curve" smooth="yes"/>
      <point x="270" y="550" type="line" smooth="yes"/>
      <point x="270" y="597"/>
      <point x="302" y="613"/>
      <point x="379" y="622" type="curve" smooth="yes"/>
      <point x="414" y="626"/>
      <point x="429" y="633"/>
      <point x="429" y="642" type="curve" smooth="yes"/>
      <point x="429" y="650"/>
      <point x="412" y="653"/>
      <point x="389" y="653" type="curve" smooth="yes"/>
      <point x="315" y="653"/>
      <point x="298" y="650"/>
      <point x="240" y="650" type="curve" smooth="yes"/>
      <point x="176" y="650"/>
      <point x="152" y="653"/>
      <point x="78" y="653" type="curve" smooth="yes"/>
      <point x="55" y="653"/>
      <point x="38" y="650"/>
      <point x="38" y="642" type="curve" smooth="yes"/>
      <point x="38" y="633"/>
      <point x="53" y="626"/>
      <point x="88" y="622" type="curve" smooth="yes"/>
      <point x="164" y="613"/>
      <point x="190" y="597"/>
      <point x="190" y="550" type="curve" smooth="yes"/>
      <point x="190" y="100" type="line" smooth="yes"/>
      <point x="190" y="53"/>
      <point x="164" y="37"/>
      <point x="88" y="28" type="curve" smooth="yes"/>
      <point x="53" y="24"/>
      <point x="38" y="17"/>
      <point x="38" y="8" type="curve" smooth="yes"/>
      <point x="38" y="0"/>
      <point x="55" y="-3"/>
    </contour>
  </outline>
</glyph>
<glyph name="J" format="1">
  <advance width="340"/>
  <unicode hex="004A"/>
  <outline>
    <contour>
      <point x="-61" y="-200" type="curve" smooth="yes"/>
      <point x="13" y="-200"/>
      <point x="54" y="-178"/>
      <point x="122" y="-146" type="curve" smooth="yes"/>
      <point x="186" y="-105"/>
      <point x="270" y="-38"/>
      <point x="270" y="107" type="curve" smooth="yes"/>
      <point x="270" y="550" type="line" smooth="yes"/>
      <point x="270" y="597"/>
      <point x="302" y="613"/>
      <point x="379" y="622" type="curve" smooth="yes"/>
      <point x="414" y="626"/>
      <point x="429" y="633"/>
      <point x="429" y="642" type="curve" smooth="yes"/>
      <point x="429" y="650"/>
      <point x="412" y="653"/>
      <point x="389" y="653" type="curve" smooth="yes"/>
      <point x="315" y="653"/>
      <point x="298" y="650"/>
      <point x="240" y="650" type="curve" smooth="yes"/>
      <point x="176" y="650"/>
      <point x="152" y="653"/>
      <point x="78" y="653" type="curve" smooth="yes"/>
      <point x="55" y="653"/>
      <point x="38" y="650"/>
      <point x="38" y="642" type="curve" smooth="yes"/>
      <point x="38" y="633"/>
      <point x="53" y="626"/>
      <point x="88" y="622" type="curve" smooth="yes"/>
      <point x="164" y="613"/>
      <point x="190" y="597"/>
      <point x="190" y="550" type="curve" smooth="yes"/>
      <point x="190" y="60" type="line" smooth="yes"/>
      <point x="190" y="-72"/>
      <point x="88" y="-159"/>
      <point x="-23" y="-159" type="curve" smooth="yes"/>
      <point x="-87" y="-159"/>
      <point x="-128" y="-141"/>
      <point x="-158" y="-125" type="curve" smooth="yes"/>
      <point x="-180" y="-114"/>
      <point x="-197" y="-104"/>
      <point x="-213" y="-104" type="curve" smooth="yes"/>
      <point x="-232" y="-104"/>
      <point x="-249" y="-122"/>
      <point x="-249" y="-145" type="curve" smooth="yes"/>
      <point x="-249" y="-184"/>
      <point x="-214" y="-200"/>
    </contour>
  </outline>
</glyph>
<glyph name="K" format="1">
  <advance width="1375"/>
  <unicode hex="004B"/>
  <outline>
    <contour>
      <point x="115" y="-4" type="curve" smooth="yes"/>
      <point x="196" y="-4"/>
      <point x="200" y="-1"/>
      <point x="257" y="-1" type="curve" smooth="yes"/>
      <point x="316" y="-1"/>
      <point x="324" y="-4"/>
      <point x="394" y="-4" type="curve" smooth="yes"/>
      <point x="419" y="-4"/>
      <point x="430" y="1"/>
      <point x="430" y="9" type="curve" smooth="yes"/>
      <point x="430" y="18"/>
      <point x="417" y="23"/>
      <point x="383" y="27" type="curve" smooth="yes"/>
      <point x="307" y="36"/>
      <point x="292" y="47"/>
      <point x="292" y="98" type="curve" smooth="yes"/>
      <point x="292" y="163"/>
      <point x="292" y="227"/>
      <point x="292" y="292" type="curve" smooth="yes"/>
      <point x="292" y="299"/>
      <point x="292" y="313"/>
      <point x="306" y="313" type="curve" smooth="yes"/>
      <point x="318" y="313"/>
      <point x="344" y="307"/>
      <point x="364" y="299" type="curve"/>
      <point x="1024" y="51" type="line" smooth="yes"/>
      <point x="1038" y="46"/>
      <point x="1043" y="41"/>
      <point x="1043" y="37" type="curve" smooth="yes"/>
      <point x="1043" y="33"/>
      <point x="1036" y="30"/>
      <point x="1028" y="29" type="curve" smooth="yes"/>
      <point x="1001" y="26"/>
      <point x="983" y="20"/>
      <point x="983" y="11" type="curve" smooth="yes"/>
      <point x="983" y="3"/>
      <point x="1001" y="0"/>
      <point x="1026" y="0" type="curve" smooth="yes"/>
      <point x="1091" y="0"/>
      <point x="1107" y="1"/>
      <point x="1144" y="1" type="curve" smooth="yes"/>
      <point x="1224" y="1"/>
      <point x="1261" y="-4"/>
      <point x="1347" y="-4" type="curve" smooth="yes"/>
      <point x="1371" y="-4"/>
      <point x="1389" y="-1"/>
      <point x="1389" y="7" type="curve" smooth="yes"/>
      <point x="1389" y="16"/>
      <point x="1369" y="20"/>
      <point x="1323" y="25" type="curve" smooth="yes"/>
      <point x="1284" y="29"/>
      <point x="1181" y="62"/>
      <point x="1092" y="96" type="curve" smooth="yes"/>
      <point x="460" y="337" type="line" smooth="yes"/>
      <point x="445" y="343"/>
      <point x="440" y="350"/>
      <point x="450" y="355" type="curve"/>
      <point x="645" y="436"/>
      <point x="883" y="529"/>
      <point x="1082" y="582" type="curve" smooth="yes"/>
      <point x="1162" y="604"/>
      <point x="1236" y="619"/>
      <point x="1297" y="624" type="curve" smooth="yes"/>
      <point x="1343" y="628"/>
      <point x="1363" y="635"/>
      <point x="1363" y="644" type="curve" smooth="yes"/>
      <point x="1363" y="651"/>
      <point x="1346" y="655"/>
      <point x="1322" y="655" type="curve" smooth="yes"/>
      <point x="1298" y="655"/>
      <point x="1218" y="651"/>
      <point x="1112" y="651" type="curve" smooth="yes"/>
      <point x="1012" y="651" type="line" smooth="yes"/>
      <point x="981" y="651"/>
      <point x="958" y="648"/>
      <point x="958" y="640" type="curve" smooth="yes"/>
      <point x="958" y="631"/>
      <point x="966" y="627"/>
      <point x="997" y="622" type="curve" smooth="yes"/>
      <point x="1016" y="619"/>
      <point x="1026" y="616"/>
      <point x="1026" y="610" type="curve" smooth="yes"/>
      <point x="1026" y="606"/>
      <point x="1015" y="599"/>
      <point x="992" y="591" type="curve" smooth="yes"/>
      <point x="375" y="365" type="line"/>
      <point x="356" y="357"/>
      <point x="323" y="347"/>
      <point x="305" y="347" type="curve" smooth="yes"/>
      <point x="292" y="347"/>
      <point x="292" y="361"/>
      <point x="292" y="366" type="curve" smooth="yes"/>
      <point x="292" y="551" type="line" smooth="yes"/>
      <point x="292" y="602"/>
      <point x="307" y="613"/>
      <point x="383" y="622" type="curve" smooth="yes"/>
      <point x="417" y="626"/>
      <point x="430" y="631"/>
      <point x="430" y="640" type="curve" smooth="yes"/>
      <point x="430" y="648"/>
      <point x="419" y="653"/>
      <point x="394" y="653" type="curve" smooth="yes"/>
      <point x="324" y="653"/>
      <point x="316" y="650"/>
      <point x="257" y="650" type="curve" smooth="yes"/>
      <point x="200" y="650"/>
      <point x="196" y="653"/>
      <point x="115" y="653" type="curve" smooth="yes"/>
      <point x="88" y="653"/>
      <point x="74" y="648"/>
      <point x="74" y="640" type="curve" smooth="yes"/>
      <point x="74" y="631"/>
      <point x="90" y="626"/>
      <point x="128" y="622" type="curve" smooth="yes"/>
      <point x="203" y="614"/>
      <point x="212" y="602"/>
      <point x="212" y="551" type="curve" smooth="yes"/>
      <point x="212" y="98" type="line" smooth="yes"/>
      <point x="212" y="47"/>
      <point x="203" y="35"/>
      <point x="128" y="27" type="curve" smooth="yes"/>
      <point x="90" y="23"/>
      <point x="74" y="18"/>
      <point x="74" y="9" type="curve" smooth="yes"/>
      <point x="74" y="1"/>
      <point x="88" y="-4"/>
    </contour>
  </outline>
</glyph>
<glyph name="M" format="1">
  <advance width="1725"/>
  <unicode hex="004D"/>
  <outline>
    <contour>
      <point x="103" y="-5" type="curve" smooth="yes"/>
      <point x="187" y="-5"/>
      <point x="188" y="0"/>
      <point x="244" y="0" type="curve" smooth="yes"/>
      <point x="295" y="0"/>
      <point x="300" y="-5"/>
      <point x="375" y="-5" type="curve" smooth="yes"/>
      <point x="399" y="-5"/>
      <point x="417" y="-2"/>
      <point x="417" y="6" type="curve" smooth="yes"/>
      <point x="417" y="15"/>
      <point x="401" y="20"/>
      <point x="366" y="24" type="curve" smooth="yes"/>
      <point x="304" y="31"/>
      <point x="267" y="66"/>
      <point x="267" y="102" type="curve" smooth="yes"/>
      <point x="279" y="251"/>
      <point x="317" y="409"/>
      <point x="361" y="561" type="curve" smooth="yes"/>
      <point x="363" y="568"/>
      <point x="372" y="568"/>
      <point x="377" y="561" type="curve" smooth="yes"/>
      <point x="500" y="379"/>
      <point x="664" y="152"/>
      <point x="768" y="-4" type="curve" smooth="yes"/>
      <point x="774" y="-13"/>
      <point x="797" y="-12"/>
      <point x="804" y="-5" type="curve" smooth="yes"/>
      <point x="1342" y="564" type="line" smooth="yes"/>
      <point x="1354" y="576"/>
      <point x="1366" y="578"/>
      <point x="1368" y="564" type="curve" smooth="yes"/>
      <point x="1387" y="430"/>
      <point x="1388" y="240"/>
      <point x="1388" y="96" type="curve" smooth="yes"/>
      <point x="1388" y="49"/>
      <point x="1369" y="29"/>
      <point x="1305" y="24" type="curve" smooth="yes"/>
      <point x="1268" y="21"/>
      <point x="1251" y="15"/>
      <point x="1251" y="6" type="curve" smooth="yes"/>
      <point x="1251" y="-2"/>
      <point x="1269" y="-5"/>
      <point x="1294" y="-5" type="curve" smooth="yes"/>
      <point x="1372" y="-5"/>
      <point x="1386" y="0"/>
      <point x="1446" y="0" type="curve" smooth="yes"/>
      <point x="1511" y="0"/>
      <point x="1536" y="-5"/>
      <point x="1612" y="-5" type="curve" smooth="yes"/>
      <point x="1636" y="-5"/>
      <point x="1653" y="-2"/>
      <point x="1653" y="6" type="curve" smooth="yes"/>
      <point x="1653" y="15"/>
      <point x="1637" y="20"/>
      <point x="1600" y="24" type="curve" smooth="yes"/>
      <point x="1521" y="33"/>
      <point x="1477" y="54"/>
      <point x="1474" y="95" type="curve" smooth="yes"/>
      <point x="1473" y="246"/>
      <point x="1452" y="382"/>
      <point x="1452" y="568" type="curve" smooth="yes"/>
      <point x="1452" y="583"/>
      <point x="1472" y="596"/>
      <point x="1500" y="602" type="curve" smooth="yes"/>
      <point x="1536" y="610"/>
      <point x="1582" y="618"/>
      <point x="1585" y="625" type="curve" smooth="yes"/>
      <point x="1621" y="633"/>
      <point x="1632" y="637"/>
      <point x="1632" y="646" type="curve" smooth="yes"/>
      <point x="1632" y="655"/>
      <point x="1605" y="656"/>
      <point x="1594" y="656" type="curve" smooth="yes"/>
      <point x="1553" y="656"/>
      <point x="1462" y="648"/>
      <point x="1390" y="648" type="curve" smooth="yes"/>
      <point x="1326" y="648" type="line" smooth="yes"/>
      <point x="1317" y="648"/>
      <point x="1312" y="643"/>
      <point x="1308" y="635" type="curve" smooth="yes"/>
      <point x="1300" y="614"/>
      <point x="1284" y="570"/>
      <point x="1272" y="548" type="curve"/>
      <point x="834" y="78" type="line" smooth="yes"/>
      <point x="824" y="68"/>
      <point x="813" y="68"/>
      <point x="806" y="79" type="curve" smooth="yes"/>
      <point x="477" y="554" type="line" smooth="yes"/>
      <point x="460" y="579"/>
      <point x="447" y="607"/>
      <point x="433" y="631" type="curve" smooth="yes"/>
      <point x="427" y="641"/>
      <point x="413" y="647"/>
      <point x="395" y="647" type="curve" smooth="yes"/>
      <point x="343" y="647"/>
      <point x="200" y="655"/>
      <point x="155" y="655" type="curve" smooth="yes"/>
      <point x="120" y="655"/>
      <point x="96" y="654"/>
      <point x="96" y="644" type="curve" smooth="yes"/>
      <point x="96" y="635"/>
      <point x="111" y="627"/>
      <point x="134" y="624" type="curve" smooth="yes"/>
      <point x="186" y="618"/>
      <point x="223" y="614"/>
      <point x="264" y="594" type="curve" smooth="yes"/>
      <point x="287" y="583"/>
      <point x="289" y="572"/>
      <point x="290" y="561" type="curve" smooth="yes"/>
      <point x="292" y="551"/>
      <point x="292" y="538"/>
      <point x="292" y="528" type="curve" smooth="yes"/>
      <point x="292" y="444"/>
      <point x="258" y="282"/>
      <point x="218" y="102" type="curve" smooth="yes"/>
      <point x="206" y="55"/>
      <point x="169" y="30"/>
      <point x="113" y="24" type="curve" smooth="yes"/>
      <point x="75" y="20"/>
      <point x="58" y="15"/>
      <point x="58" y="6" type="curve" smooth="yes"/>
      <point x="58" y="-2"/>
      <point x="76" y="-5"/>
    </contour>
  </outline>
</glyph>
<glyph name="N" format="1">
  <advance width="1482"/>
  <unicode hex="004E"/>
  <outline>
    <contour>
      <point x="1279" y="-17" type="curve" smooth="yes"/>
      <point x="1296" y="-17"/>
      <point x="1315" y="-13"/>
      <point x="1315" y="8" type="curve" smooth="yes"/>
      <point x="1315" y="21"/>
      <point x="1305" y="57"/>
      <point x="1305" y="105" type="curve" smooth="yes"/>
      <point x="1305" y="263"/>
      <point x="1307" y="550"/>
      <point x="1309" y="568" type="curve" smooth="yes"/>
      <point x="1312" y="601"/>
      <point x="1329" y="613"/>
      <point x="1409" y="622" type="curve" smooth="yes"/>
      <point x="1446" y="626"/>
      <point x="1462" y="633"/>
      <point x="1462" y="642" type="curve" smooth="yes"/>
      <point x="1462" y="650"/>
      <point x="1443" y="653"/>
      <point x="1416" y="653" type="curve" smooth="yes"/>
      <point x="1321" y="653"/>
      <point x="1309" y="650"/>
      <point x="1258" y="650" type="curve" smooth="yes"/>
      <point x="1175" y="650"/>
      <point x="1137" y="650"/>
      <point x="1153" y="650" type="curve" smooth="yes"/>
      <point x="1134" y="650"/>
      <point x="1107" y="647"/>
      <point x="1107" y="639" type="curve" smooth="yes"/>
      <point x="1107" y="630"/>
      <point x="1141" y="623"/>
      <point x="1176" y="619" type="curve" smooth="yes"/>
      <point x="1217" y="614"/>
      <point x="1264" y="599"/>
      <point x="1264" y="564" type="curve" smooth="yes"/>
      <point x="1264" y="437"/>
      <point x="1265" y="148"/>
      <point x="1263" y="110" type="curve"/>
      <point x="1261" y="95"/>
      <point x="1253" y="89"/>
      <point x="1243" y="89" type="curve" smooth="yes"/>
      <point x="1227" y="89"/>
      <point x="1203" y="103"/>
      <point x="1193" y="109" type="curve" smooth="yes"/>
      <point x="1153" y="133"/>
      <point x="351" y="609"/>
      <point x="313" y="636" type="curve"/>
      <point x="299" y="645"/>
      <point x="289" y="653"/>
      <point x="265" y="653" type="curve" smooth="yes"/>
      <point x="133" y="653"/>
      <point x="177" y="656"/>
      <point x="59" y="658" type="curve" smooth="yes"/>
      <point x="48" y="658"/>
      <point x="24" y="656"/>
      <point x="24" y="644" type="curve" smooth="yes"/>
      <point x="24" y="632"/>
      <point x="62" y="622"/>
      <point x="71" y="620" type="curve" smooth="yes"/>
      <point x="186" y="596"/>
      <point x="221" y="573"/>
      <point x="221" y="507" type="curve" smooth="yes"/>
      <point x="221" y="342"/>
      <point x="211" y="182"/>
      <point x="203" y="107" type="curve" smooth="yes"/>
      <point x="195" y="66"/>
      <point x="168" y="35"/>
      <point x="103" y="25" type="curve" smooth="yes"/>
      <point x="63" y="19"/>
      <point x="46" y="15"/>
      <point x="46" y="6" type="curve" smooth="yes"/>
      <point x="46" y="-2"/>
      <point x="63" y="-5"/>
      <point x="88" y="-5" type="curve" smooth="yes"/>
      <point x="167" y="-5"/>
      <point x="169" y="0"/>
      <point x="221" y="0" type="curve" smooth="yes"/>
      <point x="275" y="0"/>
      <point x="280" y="-5"/>
      <point x="359" y="-5" type="curve" smooth="yes"/>
      <point x="383" y="-5"/>
      <point x="401" y="-2"/>
      <point x="401" y="6" type="curve" smooth="yes"/>
      <point x="401" y="15"/>
      <point x="387" y="21"/>
      <point x="353" y="25" type="curve" smooth="yes"/>
      <point x="279" y="34"/>
      <point x="258" y="71"/>
      <point x="258" y="109" type="curve" smooth="yes"/>
      <point x="258" y="231"/>
      <point x="265" y="433"/>
      <point x="265" y="531" type="curve" smooth="yes"/>
      <point x="265" y="539"/>
      <point x="269" y="552"/>
      <point x="283" y="552" type="curve" smooth="yes"/>
      <point x="293" y="552"/>
      <point x="305" y="548"/>
      <point x="325" y="536" type="curve" smooth="yes"/>
      <point x="371" y="508"/>
      <point x="1099" y="71"/>
      <point x="1130" y="46" type="curve" smooth="yes"/>
      <point x="1185" y="2"/>
      <point x="1258" y="-17"/>
    </contour>
  </outline>
</glyph>
<glyph name="O" format="1">
  <advance width="1526"/>
  <unicode hex="004F"/>
  <outline>
    <contour>
      <point x="754" y="-14" type="curve" smooth="yes"/>
      <point x="1198" y="-14"/>
      <point x="1436" y="155"/>
      <point x="1436" y="335" type="curve" smooth="yes"/>
      <point x="1436" y="532"/>
      <point x="1124" y="664"/>
      <point x="772" y="664" type="curve" smooth="yes"/>
      <point x="328" y="664"/>
      <point x="90" y="495"/>
      <point x="90" y="315" type="curve" smooth="yes"/>
      <point x="90" y="118"/>
      <point x="402" y="-14"/>
    </contour>
    <contour>
      <point x="788" y="26" type="curve" smooth="yes"/>
      <point x="445" y="26"/>
      <point x="186" y="155"/>
      <point x="186" y="365" type="curve" smooth="yes"/>
      <point x="186" y="507"/>
      <point x="397" y="622"/>
      <point x="735" y="622" type="curve" smooth="yes"/>
      <point x="1106" y="622"/>
      <point x="1341" y="471"/>
      <point x="1341" y="286" type="curve" smooth="yes"/>
      <point x="1341" y="149"/>
      <point x="1123" y="26"/>
    </contour>
  </outline>
</glyph>
<glyph name="P" format="1">
  <advance width="1062"/>
  <unicode hex="0050"/>
  <outline>
    <contour>
      <point x="88" y="-5" type="curve" smooth="yes"/>
      <point x="172" y="-5"/>
      <point x="197" y="2"/>
      <point x="248" y="2" type="curve" smooth="yes"/>
      <point x="286" y="2"/>
      <point x="292" y="-5"/>
      <point x="381" y="-5" type="curve" smooth="yes"/>
      <point x="406" y="-5"/>
      <point x="424" y="-2"/>
      <point x="424" y="6" type="curve" smooth="yes"/>
      <point x="424" y="15"/>
      <point x="409" y="20"/>
      <point x="375" y="24" type="curve" smooth="yes"/>
      <point x="293" y="34"/>
      <point x="275" y="52"/>
      <point x="275" y="111" type="curve" smooth="yes"/>
      <point x="275" y="588" type="line" smooth="yes"/>
      <point x="275" y="618"/>
      <point x="348" y="630"/>
      <point x="455" y="630" type="curve" smooth="yes"/>
      <point x="729" y="630"/>
      <point x="926" y="579"/>
      <point x="926" y="473" type="curve" smooth="yes"/>
      <point x="926" y="355"/>
      <point x="770" y="285"/>
      <point x="465" y="285" type="curve" smooth="yes"/>
      <point x="438" y="285"/>
      <point x="363" y="290"/>
      <point x="357" y="290" type="curve" smooth="yes"/>
      <point x="350" y="290"/>
      <point x="341" y="281"/>
      <point x="341" y="276" type="curve" smooth="yes"/>
      <point x="341" y="265"/>
      <point x="401" y="254"/>
      <point x="448" y="254" type="curve" smooth="yes"/>
      <point x="833" y="254"/>
      <point x="1012" y="357"/>
      <point x="1012" y="480" type="curve" smooth="yes"/>
      <point x="1012" y="592"/>
      <point x="794" y="658"/>
      <point x="467" y="658" type="curve" smooth="yes"/>
      <point x="407" y="658"/>
      <point x="314" y="652"/>
      <point x="228" y="652" type="curve" smooth="yes"/>
      <point x="187" y="652"/>
      <point x="184" y="653"/>
      <point x="105" y="653" type="curve" smooth="yes"/>
      <point x="81" y="653"/>
      <point x="65" y="650"/>
      <point x="65" y="642" type="curve" smooth="yes"/>
      <point x="65" y="633"/>
      <point x="79" y="626"/>
      <point x="111" y="622" type="curve" smooth="yes"/>
      <point x="180" y="613"/>
      <point x="195" y="582"/>
      <point x="195" y="522" type="curve" smooth="yes"/>
      <point x="195" y="100" type="line" smooth="yes"/>
      <point x="195" y="50"/>
      <point x="179" y="35"/>
      <point x="94" y="24" type="curve" smooth="yes"/>
      <point x="62" y="20"/>
      <point x="48" y="15"/>
      <point x="48" y="6" type="curve" smooth="yes"/>
      <point x="48" y="-2"/>
      <point x="65" y="-5"/>
    </contour>
  </outline>
</glyph>
<glyph name="Q" format="1">
  <advance width="1526"/>
  <unicode hex="0051"/>
  <outline>
    <contour>
      <point x="1479" y="-247" type="curve" smooth="yes"/>
      <point x="1554" y="-247"/>
      <point x="1638" y="-236"/>
      <point x="1715" y="-211" type="curve" smooth="yes"/>
      <point x="1745" y="-201"/>
      <point x="1751" y="-196"/>
      <point x="1751" y="-183" type="curve" smooth="yes"/>
      <point x="1751" y="-177"/>
      <point x="1746" y="-175"/>
      <point x="1740" y="-175" type="curve" smooth="yes"/>
      <point x="1725" y="-175"/>
      <point x="1708" y="-178"/>
      <point x="1693" y="-181" type="curve"/>
      <point x="1671" y="-187"/>
      <point x="1614" y="-192"/>
      <point x="1554" y="-192" type="curve" smooth="yes"/>
      <point x="1432" y="-192"/>
      <point x="1302" y="-166"/>
      <point x="1185" y="-127" type="curve" smooth="yes"/>
      <point x="1092" y="-97"/>
      <point x="1007" y="-58"/>
      <point x="940" y="-18" type="curve"/>
      <point x="937" y="-15"/>
      <point x="936" y="-12"/>
      <point x="936" y="-9" type="curve" smooth="yes"/>
      <point x="936" y="-7"/>
      <point x="937" y="-4"/>
      <point x="944" y="-2" type="curve"/>
      <point x="1264" y="39"/>
      <point x="1436" y="183"/>
      <point x="1436" y="335" type="curve" smooth="yes"/>
      <point x="1436" y="532"/>
      <point x="1124" y="664"/>
      <point x="772" y="664" type="curve" smooth="yes"/>
      <point x="328" y="664"/>
      <point x="90" y="495"/>
      <point x="90" y="315" type="curve" smooth="yes"/>
      <point x="90" y="165"/>
      <point x="272" y="52"/>
      <point x="514" y="7" type="curve" smooth="yes"/>
      <point x="639" y="-16"/>
      <point x="747" y="-51"/>
      <point x="848" y="-88" type="curve" smooth="yes"/>
      <point x="1060" y="-165"/>
      <point x="1097" y="-181"/>
      <point x="1181" y="-204" type="curve" smooth="yes"/>
      <point x="1273" y="-230"/>
      <point x="1370" y="-247"/>
    </contour>
    <contour>
      <point x="788" y="26" type="curve" smooth="yes"/>
      <point x="445" y="26"/>
      <point x="186" y="155"/>
      <point x="186" y="365" type="curve" smooth="yes"/>
      <point x="186" y="507"/>
      <point x="397" y="622"/>
      <point x="735" y="622" type="curve" smooth="yes"/>
      <point x="1106" y="622"/>
      <point x="1341" y="471"/>
      <point x="1341" y="286" type="curve" smooth="yes"/>
      <point x="1341" y="149"/>
      <point x="1123" y="26"/>
    </contour>
  </outline>
</glyph>
<glyph name="R" format="1">
  <advance width="1426"/>
  <unicode hex="0052"/>
  <outline>
    <contour>
      <point x="1319" y="-21" type="curve" smooth="yes"/>
      <point x="1363" y="-21"/>
      <point x="1462" y="-15"/>
      <point x="1462" y="14" type="curve" smooth="yes"/>
      <point x="1462" y="22"/>
      <point x="1452" y="25"/>
      <point x="1432" y="25" type="curve" smooth="yes"/>
      <point x="1338" y="25"/>
      <point x="1272" y="29"/>
      <point x="1202" y="58" type="curve" smooth="yes"/>
      <point x="981" y="149"/>
      <point x="910" y="217"/>
      <point x="786" y="310" type="curve" smooth="yes"/>
      <point x="778" y="316"/>
      <point x="776" y="321"/>
      <point x="786" y="323" type="curve"/>
      <point x="896" y="351"/>
      <point x="1032" y="403"/>
      <point x="1032" y="493" type="curve" smooth="yes"/>
      <point x="1032" y="602"/>
      <point x="874" y="657"/>
      <point x="582" y="657" type="curve" smooth="yes"/>
      <point x="466" y="657"/>
      <point x="428" y="652"/>
      <point x="352" y="652" type="curve" smooth="yes"/>
      <point x="270" y="652"/>
      <point x="246" y="653"/>
      <point x="116" y="653" type="curve" smooth="yes"/>
      <point x="94" y="653"/>
      <point x="78" y="650"/>
      <point x="78" y="642" type="curve" smooth="yes"/>
      <point x="78" y="633"/>
      <point x="91" y="624"/>
      <point x="121" y="622" type="curve" smooth="yes"/>
      <point x="195" y="617"/>
      <point x="212" y="602"/>
      <point x="212" y="526" type="curve" smooth="yes"/>
      <point x="212" y="100" type="line" smooth="yes"/>
      <point x="212" y="47"/>
      <point x="204" y="36"/>
      <point x="117" y="24" type="curve" smooth="yes"/>
      <point x="87" y="20"/>
      <point x="74" y="15"/>
      <point x="74" y="6" type="curve" smooth="yes"/>
      <point x="74" y="-2"/>
      <point x="90" y="-5"/>
      <point x="112" y="-5" type="curve" smooth="yes"/>
      <point x="169" y="-5"/>
      <point x="207" y="1"/>
      <point x="247" y="1" type="curve" smooth="yes"/>
      <point x="277" y="1"/>
      <point x="364" y="-5"/>
      <point x="389" y="-5" type="curve" smooth="yes"/>
      <point x="413" y="-5"/>
      <point x="429" y="-2"/>
      <point x="429" y="6" type="curve" smooth="yes"/>
      <point x="429" y="15"/>
      <point x="415" y="20"/>
      <point x="383" y="24" type="curve" smooth="yes"/>
      <point x="304" y="34"/>
      <point x="291" y="57"/>
      <point x="291" y="110" type="curve" smooth="yes"/>
      <point x="292" y="286" type="line" smooth="yes"/>
      <point x="292" y="298"/>
      <point x="307" y="307"/>
      <point x="350" y="306" type="curve" smooth="yes"/>
      <point x="533" y="302"/>
      <point x="603" y="300"/>
      <point x="667" y="285" type="curve" smooth="yes"/>
      <point x="711" y="275"/>
      <point x="738" y="266"/>
      <point x="761" y="246" type="curve" smooth="yes"/>
      <point x="866" y="154"/>
      <point x="922" y="105"/>
      <point x="1068" y="33" type="curve" smooth="yes"/>
      <point x="1135" y="0"/>
      <point x="1219" y="-21"/>
    </contour>
    <contour>
      <point x="460" y="329" type="curve" smooth="yes"/>
      <point x="354" y="329"/>
      <point x="291" y="331"/>
      <point x="291" y="364" type="curve" smooth="yes"/>
      <point x="291" y="444"/>
      <point x="293" y="500"/>
      <point x="297" y="534" type="curve" smooth="yes"/>
      <point x="305" y="603"/>
      <point x="332" y="627"/>
      <point x="469" y="627" type="curve" smooth="yes"/>
      <point x="867" y="627"/>
      <point x="940" y="576"/>
      <point x="940" y="477" type="curve" smooth="yes"/>
      <point x="940" y="393"/>
      <point x="761" y="329"/>
    </contour>
  </outline>
</glyph>
<glyph name="T" format="1">
  <advance width="1290"/>
  <unicode hex="0054"/>
  <outline>
    <contour>
      <point x="479" y="-3" type="curve" smooth="yes"/>
      <point x="553" y="-3"/>
      <point x="577" y="0"/>
      <point x="641" y="0" type="curve" smooth="yes"/>
      <point x="699" y="0"/>
      <point x="729" y="-3"/>
      <point x="803" y="-3" type="curve" smooth="yes"/>
      <point x="826" y="-3"/>
      <point x="843" y="0"/>
      <point x="843" y="8" type="curve" smooth="yes"/>
      <point x="843" y="17"/>
      <point x="828" y="24"/>
      <point x="793" y="28" type="curve" smooth="yes"/>
      <point x="700" y="39"/>
      <point x="674" y="57"/>
      <point x="674" y="102" type="curve" smooth="yes"/>
      <point x="674" y="564" type="line" smooth="yes"/>
      <point x="674" y="599"/>
      <point x="696" y="609"/>
      <point x="726" y="609" type="curve" smooth="yes"/>
      <point x="1106" y="610" type="line" smooth="yes"/>
      <point x="1192" y="610"/>
      <point x="1222" y="588"/>
      <point x="1229" y="554" type="curve" smooth="yes"/>
      <point x="1236" y="523"/>
      <point x="1241" y="505"/>
      <point x="1255" y="505" type="curve" smooth="yes"/>
      <point x="1268" y="505"/>
      <point x="1276" y="529"/>
      <point x="1276" y="555" type="curve" smooth="yes"/>
      <point x="1276" y="567" type="line" smooth="yes"/>
      <point x="1276" y="593"/>
      <point x="1282" y="589"/>
      <point x="1290" y="626" type="curve" smooth="yes"/>
      <point x="1291" y="632"/>
      <point x="1295" y="647"/>
      <point x="1295" y="654" type="curve" smooth="yes"/>
      <point x="1295" y="664"/>
      <point x="1291" y="677"/>
      <point x="1286" y="677" type="curve" smooth="yes"/>
      <point x="1264" y="677"/>
      <point x="1255" y="665"/>
      <point x="1233" y="657" type="curve" smooth="yes"/>
      <point x="1204" y="646"/>
      <point x="1168" y="642"/>
      <point x="1106" y="642" type="curve" smooth="yes"/>
      <point x="202" y="642" type="line" smooth="yes"/>
      <point x="166" y="642"/>
      <point x="122" y="648"/>
      <point x="112" y="662" type="curve" smooth="yes"/>
      <point x="104" y="673"/>
      <point x="86" y="694"/>
      <point x="80" y="694" type="curve" smooth="yes"/>
      <point x="74" y="694"/>
      <point x="63" y="693"/>
      <point x="58" y="671" type="curve" smooth="yes"/>
      <point x="50" y="630"/>
      <point x="43" y="604"/>
      <point x="18" y="566" type="curve" smooth="yes"/>
      <point x="15" y="560"/>
      <point x="12" y="540"/>
      <point x="12" y="533" type="curve" smooth="yes"/>
      <point x="12" y="524"/>
      <point x="15" y="517"/>
      <point x="21" y="517" type="curve" smooth="yes"/>
      <point x="40" y="517"/>
      <point x="67" y="550"/>
      <point x="74" y="563" type="curve" smooth="yes"/>
      <point x="92" y="597"/>
      <point x="138" y="610"/>
      <point x="179" y="610" type="curve" smooth="yes"/>
      <point x="540" y="610" type="line" smooth="yes"/>
      <point x="556" y="610"/>
      <point x="569" y="607"/>
      <point x="579" y="600" type="curve" smooth="yes"/>
      <point x="587" y="593"/>
      <point x="592" y="582"/>
      <point x="592" y="565" type="curve" smooth="yes"/>
      <point x="592" y="99" type="line" smooth="yes"/>
      <point x="592" y="51"/>
      <point x="557" y="33"/>
      <point x="485" y="24" type="curve" smooth="yes"/>
      <point x="452" y="20"/>
      <point x="438" y="15"/>
      <point x="438" y="6" type="curve" smooth="yes"/>
      <point x="438" y="-2"/>
      <point x="456" y="-3"/>
    </contour>
  </outline>
</glyph>
<glyph name="U" format="1">
  <advance width="1404"/>
  <unicode hex="0055"/>
  <outline>
    <contour>
      <point x="710" y="-14" type="curve" smooth="yes"/>
      <point x="1004" y="-14"/>
      <point x="1226" y="95"/>
      <point x="1237" y="266" type="curve" smooth="yes"/>
      <point x="1242" y="342"/>
      <point x="1242" y="432"/>
      <point x="1256" y="547" type="curve" smooth="yes"/>
      <point x="1261" y="592"/>
      <point x="1275" y="607"/>
      <point x="1347" y="618" type="curve" smooth="yes"/>
      <point x="1374" y="622"/>
      <point x="1386" y="629"/>
      <point x="1386" y="638" type="curve" smooth="yes"/>
      <point x="1386" y="646"/>
      <point x="1372" y="649"/>
      <point x="1355" y="649" type="curve" smooth="yes"/>
      <point x="1299" y="649"/>
      <point x="1275" y="646"/>
      <point x="1231" y="646" type="curve" smooth="yes"/>
      <point x="1182" y="646"/>
      <point x="1164" y="649"/>
      <point x="1107" y="649" type="curve" smooth="yes"/>
      <point x="1091" y="649"/>
      <point x="1076" y="648"/>
      <point x="1076" y="640" type="curve" smooth="yes"/>
      <point x="1076" y="631"/>
      <point x="1087" y="626"/>
      <point x="1112" y="622" type="curve" smooth="yes"/>
      <point x="1167" y="613"/>
      <point x="1192" y="595"/>
      <point x="1194" y="547" type="curve" smooth="yes"/>
      <point x="1198" y="456"/>
      <point x="1203" y="345"/>
      <point x="1203" y="293" type="curve" smooth="yes"/>
      <point x="1203" y="150"/>
      <point x="1068" y="36"/>
      <point x="741" y="36" type="curve" smooth="yes"/>
      <point x="452" y="36"/>
      <point x="254" y="103"/>
      <point x="254" y="266" type="curve" smooth="yes"/>
      <point x="254" y="544" type="line" smooth="yes"/>
      <point x="254" y="589"/>
      <point x="280" y="607"/>
      <point x="373" y="618" type="curve" smooth="yes"/>
      <point x="408" y="622"/>
      <point x="423" y="629"/>
      <point x="423" y="638" type="curve" smooth="yes"/>
      <point x="423" y="646"/>
      <point x="406" y="649"/>
      <point x="383" y="649" type="curve" smooth="yes"/>
      <point x="309" y="649"/>
      <point x="279" y="646"/>
      <point x="221" y="646" type="curve" smooth="yes"/>
      <point x="157" y="646"/>
      <point x="133" y="649"/>
      <point x="59" y="649" type="curve" smooth="yes"/>
      <point x="36" y="649"/>
      <point x="18" y="648"/>
      <point x="18" y="640" type="curve" smooth="yes"/>
      <point x="18" y="631"/>
      <point x="32" y="626"/>
      <point x="65" y="622" type="curve" smooth="yes"/>
      <point x="137" y="613"/>
      <point x="172" y="595"/>
      <point x="172" y="547" type="curve" smooth="yes"/>
      <point x="172" y="240" type="line" smooth="yes"/>
      <point x="172" y="87"/>
      <point x="352" y="-14"/>
    </contour>
  </outline>
</glyph>
<glyph name="V" format="1">
  <advance width="1211"/>
  <unicode hex="0056"/>
  <outline>
    <contour>
      <point x="579" y="-12" type="curve" smooth="yes"/>
      <point x="587" y="-12"/>
      <point x="595" y="-9"/>
      <point x="599" y="-5" type="curve" smooth="yes"/>
      <point x="622" y="18"/>
      <point x="653" y="69"/>
      <point x="661" y="79" type="curve" smooth="yes"/>
      <point x="1012" y="535" type="line" smooth="yes"/>
      <point x="1036" y="571"/>
      <point x="1092" y="611"/>
      <point x="1172" y="622" type="curve" smooth="yes"/>
      <point x="1209" y="627"/>
      <point x="1225" y="633"/>
      <point x="1225" y="642" type="curve" smooth="yes"/>
      <point x="1225" y="650"/>
      <point x="1208" y="653"/>
      <point x="1185" y="653" type="curve" smooth="yes"/>
      <point x="1149" y="653"/>
      <point x="1082" y="650"/>
      <point x="1028" y="650" type="curve" smooth="yes"/>
      <point x="975" y="650"/>
      <point x="927" y="651"/>
      <point x="891" y="651" type="curve" smooth="yes"/>
      <point x="868" y="651"/>
      <point x="851" y="648"/>
      <point x="851" y="640" type="curve" smooth="yes"/>
      <point x="851" y="631"/>
      <point x="875" y="623"/>
      <point x="911" y="620" type="curve" smooth="yes"/>
      <point x="952" y="614"/>
      <point x="1005" y="582"/>
      <point x="952" y="514" type="curve" smooth="yes"/>
      <point x="618" y="82" type="line" smooth="yes"/>
      <point x="610" y="72"/>
      <point x="600" y="76"/>
      <point x="596" y="81" type="curve" smooth="yes"/>
      <point x="276" y="533" type="line"/>
      <point x="270" y="542"/>
      <point x="254" y="559"/>
      <point x="254" y="582" type="curve" smooth="yes"/>
      <point x="254" y="605"/>
      <point x="289" y="618"/>
      <point x="345" y="621" type="curve" smooth="yes"/>
      <point x="378" y="623"/>
      <point x="393" y="632"/>
      <point x="393" y="641" type="curve" smooth="yes"/>
      <point x="393" y="649"/>
      <point x="375" y="652"/>
      <point x="350" y="652" type="curve" smooth="yes"/>
      <point x="321" y="652"/>
      <point x="264" y="650"/>
      <point x="206" y="650" type="curve" smooth="yes"/>
      <point x="139" y="650"/>
      <point x="87" y="653"/>
      <point x="42" y="653" type="curve" smooth="yes"/>
      <point x="17" y="653"/>
      <point x="0" y="650"/>
      <point x="0" y="642" type="curve" smooth="yes"/>
      <point x="0" y="633"/>
      <point x="20" y="627"/>
      <point x="61" y="620" type="curve" smooth="yes"/>
      <point x="126" y="609"/>
      <point x="150" y="586"/>
      <point x="177" y="547" type="curve" smooth="yes"/>
      <point x="515" y="56" type="line" smooth="yes"/>
      <point x="527" y="38"/>
      <point x="545" y="9"/>
      <point x="557" y="-5" type="curve" smooth="yes"/>
      <point x="561" y="-10"/>
      <point x="571" y="-12"/>
    </contour>
  </outline>
</glyph>
<glyph name="X" format="1">
  <advance width="1414"/>
  <unicode hex="0058"/>
  <outline>
    <contour>
      <point x="48" y="-5" type="curve" smooth="yes"/>
      <point x="114" y="-5"/>
      <point x="210" y="1"/>
      <point x="300" y="1" type="curve" smooth="yes"/>
      <point x="331" y="1"/>
      <point x="364" y="-1"/>
      <point x="381" y="-1" type="curve" smooth="yes"/>
      <point x="397" y="-1"/>
      <point x="409" y="2"/>
      <point x="409" y="10" type="curve" smooth="yes"/>
      <point x="409" y="19"/>
      <point x="399" y="24"/>
      <point x="377" y="30" type="curve" smooth="yes"/>
      <point x="366" y="35"/>
      <point x="356" y="41"/>
      <point x="355" y="51" type="curve" smooth="yes"/>
      <point x="354" y="61"/>
      <point x="363" y="75"/>
      <point x="391" y="93" type="curve" smooth="yes"/>
      <point x="684" y="280" type="line" smooth="yes"/>
      <point x="698" y="289"/>
      <point x="707" y="288"/>
      <point x="728" y="275" type="curve" smooth="yes"/>
      <point x="1027" y="86" type="line" smooth="yes"/>
      <point x="1039" y="78"/>
      <point x="1047" y="68"/>
      <point x="1046" y="58" type="curve" smooth="yes"/>
      <point x="1045" y="46"/>
      <point x="1029" y="36"/>
      <point x="999" y="31" type="curve" smooth="yes"/>
      <point x="975" y="27"/>
      <point x="941" y="20"/>
      <point x="941" y="11" type="curve" smooth="yes"/>
      <point x="941" y="3"/>
      <point x="963" y="0"/>
      <point x="992" y="0" type="curve" smooth="yes"/>
      <point x="1035" y="0"/>
      <point x="1030" y="1"/>
      <point x="1096" y="1" type="curve" smooth="yes"/>
      <point x="1178" y="1"/>
      <point x="1298" y="-5"/>
      <point x="1347" y="-5" type="curve" smooth="yes"/>
      <point x="1377" y="-5"/>
      <point x="1398" y="-2"/>
      <point x="1398" y="6" type="curve" smooth="yes"/>
      <point x="1398" y="15"/>
      <point x="1378" y="20"/>
      <point x="1332" y="26" type="curve" smooth="yes"/>
      <point x="1256" y="36"/>
      <point x="1178" y="73"/>
      <point x="1118" y="111" type="curve" smooth="yes"/>
      <point x="783" y="320" type="line"/>
      <point x="769" y="335"/>
      <point x="775" y="338"/>
      <point x="811" y="360" type="curve" smooth="yes"/>
      <point x="1056" y="512" type="line" smooth="yes"/>
      <point x="1144" y="566"/>
      <point x="1250" y="615"/>
      <point x="1326" y="625" type="curve" smooth="yes"/>
      <point x="1372" y="631"/>
      <point x="1392" y="636"/>
      <point x="1392" y="645" type="curve" smooth="yes"/>
      <point x="1392" y="653"/>
      <point x="1368" y="656"/>
      <point x="1334" y="656" type="curve" smooth="yes"/>
      <point x="1280" y="656"/>
      <point x="1184" y="650"/>
      <point x="1106" y="650" type="curve" smooth="yes"/>
      <point x="1080" y="650"/>
      <point x="1053" y="651"/>
      <point x="1005" y="651" type="curve" smooth="yes"/>
      <point x="971" y="651"/>
      <point x="947" y="648"/>
      <point x="947" y="640" type="curve" smooth="yes"/>
      <point x="947" y="631"/>
      <point x="985" y="623"/>
      <point x="1013" y="620" type="curve" smooth="yes"/>
      <point x="1049" y="616"/>
      <point x="1064" y="607"/>
      <point x="1064" y="594" type="curve" smooth="yes"/>
      <point x="1064" y="585"/>
      <point x="1054" y="574"/>
      <point x="1036" y="562" type="curve" smooth="yes"/>
      <point x="762" y="371" type="line" smooth="yes"/>
      <point x="740" y="356"/>
      <point x="733" y="353"/>
      <point x="702" y="374" type="curve" smooth="yes"/>
      <point x="427" y="560" type="line" smooth="yes"/>
      <point x="393" y="583"/>
      <point x="380" y="596"/>
      <point x="380" y="604" type="curve" smooth="yes"/>
      <point x="380" y="617"/>
      <point x="413" y="618"/>
      <point x="438" y="621" type="curve" smooth="yes"/>
      <point x="461" y="624"/>
      <point x="473" y="632"/>
      <point x="473" y="641" type="curve" smooth="yes"/>
      <point x="473" y="649"/>
      <point x="460" y="652"/>
      <point x="442" y="652" type="curve" smooth="yes"/>
      <point x="423" y="652"/>
      <point x="379" y="650"/>
      <point x="345" y="650" type="curve" smooth="yes"/>
      <point x="256" y="650"/>
      <point x="148" y="655"/>
      <point x="88" y="655" type="curve" smooth="yes"/>
      <point x="58" y="655"/>
      <point x="36" y="652"/>
      <point x="36" y="644" type="curve" smooth="yes"/>
      <point x="36" y="635"/>
      <point x="58" y="629"/>
      <point x="102" y="622" type="curve" smooth="yes"/>
      <point x="170" y="611"/>
      <point x="234" y="593"/>
      <point x="334" y="529" type="curve" smooth="yes"/>
      <point x="623" y="342" type="line" smooth="yes"/>
      <point x="661" y="317"/>
      <point x="641" y="300"/>
      <point x="613" y="281" type="curve"/>
      <point x="346" y="120" type="line" smooth="yes"/>
      <point x="262" y="69"/>
      <point x="124" y="37"/>
      <point x="56" y="28" type="curve" smooth="yes"/>
      <point x="12" y="22"/>
      <point x="-10" y="15"/>
      <point x="-10" y="6" type="curve" smooth="yes"/>
      <point x="-10" y="-2"/>
      <point x="14" y="-5"/>
    </contour>
  </outline>
</glyph>
<glyph name="Y" format="1">
  <advance width="1046"/>
  <unicode hex="0059"/>
  <outline>
    <contour>
      <point x="404" y="-5" type="curve" smooth="yes"/>
      <point x="474" y="-5"/>
      <point x="505" y="0"/>
      <point x="570" y="0" type="curve" smooth="yes"/>
      <point x="630" y="0"/>
      <point x="652" y="-5"/>
      <point x="722" y="-5" type="curve" smooth="yes"/>
      <point x="744" y="-5"/>
      <point x="760" y="-2"/>
      <point x="760" y="6" type="curve" smooth="yes"/>
      <point x="760" y="15"/>
      <point x="746" y="20"/>
      <point x="713" y="24" type="curve" smooth="yes"/>
      <point x="643" y="33"/>
      <point x="601" y="63"/>
      <point x="601" y="108" type="curve" smooth="yes"/>
      <point x="601" y="261" type="line" smooth="yes"/>
      <point x="601" y="300"/>
      <point x="599" y="308"/>
      <point x="651" y="351" type="curve" smooth="yes"/>
      <point x="742" y="427"/>
      <point x="775" y="453"/>
      <point x="882" y="538" type="curve" smooth="yes"/>
      <point x="945" y="588"/>
      <point x="985" y="606"/>
      <point x="1022" y="617" type="curve" smooth="yes"/>
      <point x="1048" y="625"/>
      <point x="1089" y="633"/>
      <point x="1089" y="642" type="curve" smooth="yes"/>
      <point x="1089" y="650"/>
      <point x="1070" y="653"/>
      <point x="1042" y="653" type="curve" smooth="yes"/>
      <point x="1004" y="653"/>
      <point x="961" y="650"/>
      <point x="893" y="650" type="curve" smooth="yes"/>
      <point x="846" y="650"/>
      <point x="819" y="651"/>
      <point x="770" y="651" type="curve" smooth="yes"/>
      <point x="742" y="651"/>
      <point x="722" y="648"/>
      <point x="722" y="640" type="curve" smooth="yes"/>
      <point x="722" y="631"/>
      <point x="753" y="622"/>
      <point x="776" y="620" type="curve" smooth="yes"/>
      <point x="808" y="617"/>
      <point x="844" y="610"/>
      <point x="844" y="585" type="curve" smooth="yes"/>
      <point x="844" y="573"/>
      <point x="836" y="554"/>
      <point x="812" y="533" type="curve" smooth="yes"/>
      <point x="743" y="473"/>
      <point x="704" y="436"/>
      <point x="644" y="389" type="curve" smooth="yes"/>
      <point x="608" y="361"/>
      <point x="594" y="351"/>
      <point x="578" y="351" type="curve" smooth="yes"/>
      <point x="566" y="351"/>
      <point x="550" y="363"/>
      <point x="522" y="389" type="curve" smooth="yes"/>
      <point x="333" y="560" type="line" smooth="yes"/>
      <point x="315" y="577"/>
      <point x="307" y="588"/>
      <point x="307" y="596" type="curve" smooth="yes"/>
      <point x="307" y="611"/>
      <point x="333" y="616"/>
      <point x="371" y="621" type="curve" smooth="yes"/>
      <point x="415" y="627"/>
      <point x="437" y="632"/>
      <point x="437" y="641" type="curve" smooth="yes"/>
      <point x="437" y="649"/>
      <point x="413" y="652"/>
      <point x="379" y="652" type="curve" smooth="yes"/>
      <point x="339" y="652"/>
      <point x="298" y="650"/>
      <point x="238" y="650" type="curve" smooth="yes"/>
      <point x="150" y="650"/>
      <point x="116" y="653"/>
      <point x="58" y="653" type="curve" smooth="yes"/>
      <point x="24" y="653"/>
      <point x="0" y="650"/>
      <point x="0" y="642" type="curve" smooth="yes"/>
      <point x="0" y="633"/>
      <point x="22" y="627"/>
      <point x="66" y="620" type="curve" smooth="yes"/>
      <point x="134" y="609"/>
      <point x="214" y="547"/>
      <point x="244" y="522" type="curve" smooth="yes"/>
      <point x="477" y="329" type="line" smooth="yes"/>
      <point x="492" y="316"/>
      <point x="521" y="283"/>
      <point x="521" y="256" type="curve" smooth="yes"/>
      <point x="521" y="108" type="line" smooth="yes"/>
      <point x="521" y="60"/>
      <point x="483" y="33"/>
      <point x="412" y="24" type="curve" smooth="yes"/>
      <point x="380" y="20"/>
      <point x="366" y="15"/>
      <point x="366" y="6" type="curve" smooth="yes"/>
      <point x="366" y="-2"/>
      <point x="382" y="-5"/>
    </contour>
  </outline>
</glyph>
<glyph name="Z" format="1">
  <advance width="1206"/>
  <unicode hex="005A"/>
  <outline>
    <contour>
      <point x="1066" y="-5" type="curve" smooth="yes"/>
      <point x="1086" y="-5"/>
      <point x="1094" y="4"/>
      <point x="1102" y="12" type="curve" smooth="yes"/>
      <point x="1124" y="36"/>
      <point x="1176" y="147"/>
      <point x="1176" y="158" type="curve" smooth="yes"/>
      <point x="1176" y="167"/>
      <point x="1170" y="171"/>
      <point x="1158" y="171" type="curve" smooth="yes"/>
      <point x="1138" y="171"/>
      <point x="1120" y="158"/>
      <point x="1114" y="150" type="curve" smooth="yes"/>
      <point x="1062" y="81"/>
      <point x="984" y="46"/>
      <point x="866" y="41" type="curve" smooth="yes"/>
      <point x="772" y="38"/>
      <point x="674" y="36"/>
      <point x="584" y="36" type="curve" smooth="yes"/>
      <point x="496" y="36"/>
      <point x="333" y="38"/>
      <point x="275" y="41" type="curve"/>
      <point x="261" y="42"/>
      <point x="253" y="50"/>
      <point x="253" y="58" type="curve" smooth="yes"/>
      <point x="253" y="62"/>
      <point x="255" y="67"/>
      <point x="259" y="70" type="curve"/>
      <point x="507" y="230"/>
      <point x="770" y="390"/>
      <point x="1018" y="550" type="curve" smooth="yes"/>
      <point x="1140" y="631" type="line" smooth="yes"/>
      <point x="1148" y="636"/>
      <point x="1130" y="649"/>
      <point x="1118" y="649" type="curve" smooth="yes"/>
      <point x="970" y="647"/>
      <point x="822" y="646"/>
      <point x="656" y="646" type="curve" smooth="yes"/>
      <point x="566" y="646"/>
      <point x="470" y="646"/>
      <point x="404" y="646" type="curve" smooth="yes"/>
      <point x="336" y="646"/>
      <point x="258" y="656"/>
      <point x="232" y="662" type="curve" smooth="yes"/>
      <point x="210" y="667"/>
      <point x="180" y="676"/>
      <point x="170" y="676" type="curve" smooth="yes"/>
      <point x="160" y="676"/>
      <point x="142" y="674"/>
      <point x="140" y="659" type="curve" smooth="yes"/>
      <point x="134" y="617"/>
      <point x="100" y="562"/>
      <point x="86" y="541" type="curve"/>
      <point x="80" y="533"/>
      <point x="72" y="522"/>
      <point x="72" y="514" type="curve" smooth="yes"/>
      <point x="72" y="508"/>
      <point x="78" y="503"/>
      <point x="90" y="503" type="curve" smooth="yes"/>
      <point x="120" y="503"/>
      <point x="136" y="523"/>
      <point x="146" y="535" type="curve"/>
      <point x="182" y="584"/>
      <point x="278" y="606"/>
      <point x="342" y="609" type="curve" smooth="yes"/>
      <point x="392" y="611"/>
      <point x="468" y="611"/>
      <point x="546" y="611" type="curve" smooth="yes"/>
      <point x="652" y="611"/>
      <point x="847" y="611"/>
      <point x="919" y="609" type="curve" smooth="yes"/>
      <point x="949" y="608"/>
      <point x="957" y="605"/>
      <point x="957" y="601" type="curve" smooth="yes"/>
      <point x="957" y="598"/>
      <point x="953" y="596"/>
      <point x="949" y="593" type="curve"/>
      <point x="695" y="430"/>
      <point x="426" y="267"/>
      <point x="172" y="104" type="curve" smooth="yes"/>
      <point x="126" y="74"/>
      <point x="56" y="21"/>
      <point x="56" y="11" type="curve"/>
      <point x="56" y="11"/>
      <point x="58" y="-3"/>
      <point x="70" y="-3" type="curve" smooth="yes"/>
      <point x="224" y="-3" type="line" smooth="yes"/>
      <point x="300" y="-3"/>
      <point x="382" y="-2"/>
      <point x="462" y="-2" type="curve" smooth="yes"/>
      <point x="640" y="-2"/>
      <point x="838" y="-5"/>
    </contour>
  </outline>
</glyph>
<glyph name="a" format="1">
  <advance width="789"/>
  <unicode hex="0061"/>
  <outline>
    <contour>
      <point x="260" y="-16" type="curve" smooth="yes"/>
      <point x="359" y="-16"/>
      <point x="447" y="0"/>
      <point x="549" y="36" type="curve"/>
      <point x="553" y="36" type="line"/>
      <point x="582" y="1"/>
      <point x="620" y="-16"/>
      <point x="670" y="-16" type="curve" smooth="yes"/>
      <point x="703" y="-16"/>
      <point x="735" y="-1"/>
      <point x="769" y="19" type="curve" smooth="yes"/>
      <point x="779" y="25"/>
      <point x="787" y="35"/>
      <point x="787" y="41" type="curve" smooth="yes"/>
      <point x="787" y="47"/>
      <point x="777" y="53"/>
      <point x="765" y="53" type="curve" smooth="yes"/>
      <point x="761" y="53"/>
      <point x="757" y="52"/>
      <point x="749" y="47" type="curve" smooth="yes"/>
      <point x="732" y="37"/>
      <point x="719" y="36"/>
      <point x="685" y="36" type="curve" smooth="yes"/>
      <point x="641" y="36"/>
      <point x="611" y="56"/>
      <point x="613" y="84" type="curve" smooth="yes"/>
      <point x="623" y="326" type="line" smooth="yes"/>
      <point x="625" y="378"/>
      <point x="555" y="416"/>
      <point x="459" y="416" type="curve" smooth="yes"/>
      <point x="379" y="416"/>
      <point x="254" y="389"/>
      <point x="164" y="347" type="curve" smooth="yes"/>
      <point x="114" y="325"/>
      <point x="81" y="296"/>
      <point x="81" y="275" type="curve" smooth="yes"/>
      <point x="81" y="270"/>
      <point x="85" y="266"/>
      <point x="93" y="266" type="curve" smooth="yes"/>
      <point x="114" y="266"/>
      <point x="162" y="289"/>
      <point x="162" y="299" type="curve" smooth="yes"/>
      <point x="162" y="304"/>
      <point x="160" y="312"/>
      <point x="160" y="317" type="curve" smooth="yes"/>
      <point x="160" y="329"/>
      <point x="169" y="334"/>
      <point x="194" y="341" type="curve" smooth="yes"/>
      <point x="234" y="352"/>
      <point x="300" y="367"/>
      <point x="364" y="367" type="curve" smooth="yes"/>
      <point x="483" y="367"/>
      <point x="552" y="337"/>
      <point x="550" y="302" type="curve" smooth="yes"/>
      <point x="547" y="250" type="line" smooth="yes"/>
      <point x="545" y="223"/>
      <point x="543" y="220"/>
      <point x="491" y="210" type="curve" smooth="yes"/>
      <point x="217" y="155" type="line" smooth="yes"/>
      <point x="119" y="135"/>
      <point x="75" y="113"/>
      <point x="75" y="71" type="curve" smooth="yes"/>
      <point x="75" y="33"/>
      <point x="177" y="-16"/>
    </contour>
    <contour>
      <point x="315" y="32" type="curve" smooth="yes"/>
      <point x="215" y="32"/>
      <point x="157" y="47"/>
      <point x="157" y="86" type="curve" smooth="yes"/>
      <point x="157" y="109"/>
      <point x="205" y="137"/>
      <point x="457" y="164" type="curve" smooth="yes"/>
      <point x="492" y="168"/>
      <point x="511" y="169"/>
      <point x="521" y="169" type="curve" smooth="yes"/>
      <point x="545" y="169"/>
      <point x="550" y="163"/>
      <point x="549" y="147" type="curve" smooth="yes"/>
      <point x="546" y="98" type="line" smooth="yes"/>
      <point x="545" y="73"/>
      <point x="523" y="64"/>
      <point x="501" y="57" type="curve" smooth="yes"/>
      <point x="454" y="41"/>
      <point x="397" y="32"/>
    </contour>
  </outline>
</glyph>
<glyph name="d" format="1">
  <advance width="1013"/>
  <unicode hex="0064"/>
  <outline>
    <contour>
      <point x="853" y="-19" type="curve" smooth="yes"/>
      <point x="863" y="-19"/>
      <point x="879" y="-8"/>
      <point x="893" y="-2" type="curve" smooth="yes"/>
      <point x="916" y="7"/>
      <point x="957" y="21"/>
      <point x="980" y="21" type="curve" smooth="yes"/>
      <point x="994" y="21"/>
      <point x="1008" y="30"/>
      <point x="1008" y="39" type="curve" smooth="yes"/>
      <point x="1008" y="47"/>
      <point x="1003" y="49"/>
      <point x="989" y="48" type="curve" smooth="yes"/>
      <point x="970" y="46"/>
      <point x="950" y="45"/>
      <point x="942" y="45" type="curve" smooth="yes"/>
      <point x="926" y="45"/>
      <point x="920" y="64"/>
      <point x="920" y="110" type="curve" smooth="yes"/>
      <point x="920" y="562" type="line" smooth="yes"/>
      <point x="920" y="652"/>
      <point x="927" y="686"/>
      <point x="927" y="698" type="curve"/>
      <point x="926" y="702"/>
      <point x="924" y="704"/>
      <point x="920" y="704" type="curve" smooth="yes"/>
      <point x="916" y="704"/>
      <point x="911" y="702"/>
      <point x="906" y="701" type="curve" smooth="yes"/>
      <point x="861" y="690"/>
      <point x="818" y="676"/>
      <point x="768" y="664" type="curve" smooth="yes"/>
      <point x="759" y="662"/>
      <point x="756" y="657"/>
      <point x="756" y="652" type="curve" smooth="yes"/>
      <point x="756" y="646"/>
      <point x="760" y="641"/>
      <point x="770" y="639" type="curve" smooth="yes"/>
      <point x="821" y="627"/>
      <point x="849" y="614"/>
      <point x="849" y="566" type="curve" smooth="yes"/>
      <point x="849" y="424" type="line" smooth="yes"/>
      <point x="849" y="406"/>
      <point x="839" y="400"/>
      <point x="832" y="400" type="curve" smooth="yes"/>
      <point x="824" y="400"/>
      <point x="814" y="401"/>
      <point x="800" y="403" type="curve" smooth="yes"/>
      <point x="763" y="408"/>
      <point x="689" y="414"/>
      <point x="623" y="414" type="curve" smooth="yes"/>
      <point x="279" y="414"/>
      <point x="70" y="306"/>
      <point x="70" y="190" type="curve" smooth="yes"/>
      <point x="70" y="89"/>
      <point x="244" y="-14"/>
      <point x="525" y="-14" type="curve" smooth="yes"/>
      <point x="687" y="-14"/>
      <point x="797" y="32"/>
      <point x="846" y="63" type="curve"/>
      <point x="846" y="51" type="line" smooth="yes"/>
      <point x="846" y="34"/>
      <point x="834" y="4"/>
      <point x="834" y="-9" type="curve" smooth="yes"/>
      <point x="834" y="-12"/>
      <point x="846" y="-19"/>
    </contour>
    <contour>
      <point x="575" y="22" type="curve" smooth="yes"/>
      <point x="450" y="22"/>
      <point x="146" y="62"/>
      <point x="146" y="213" type="curve" smooth="yes"/>
      <point x="146" y="346"/>
      <point x="365" y="379"/>
      <point x="498" y="379" type="curve" smooth="yes"/>
      <point x="828" y="379"/>
      <point x="850" y="354"/>
      <point x="849" y="282" type="curve" smooth="yes"/>
      <point x="846" y="87" type="line"/>
      <point x="777" y="55"/>
      <point x="674" y="22"/>
    </contour>
  </outline>
</glyph>
<glyph name="e" format="1">
  <advance width="781"/>
  <unicode hex="0065"/>
  <outline>
    <contour>
      <point x="427" y="-17" type="curve" smooth="yes"/>
      <point x="533" y="-17"/>
      <point x="635" y="5"/>
      <point x="695" y="45" type="curve" smooth="yes"/>
      <point x="719" y="61"/>
      <point x="731" y="75"/>
      <point x="731" y="88" type="curve" smooth="yes"/>
      <point x="731" y="94"/>
      <point x="729" y="98"/>
      <point x="719" y="98" type="curve" smooth="yes"/>
      <point x="710" y="98"/>
      <point x="710" y="97"/>
      <point x="698" y="90" type="curve" smooth="yes"/>
      <point x="645" y="59"/>
      <point x="561" y="44"/>
      <point x="471" y="44" type="curve" smooth="yes"/>
      <point x="249" y="44"/>
      <point x="125" y="120"/>
      <point x="125" y="220" type="curve" smooth="yes"/>
      <point x="125" y="249"/>
      <point x="140" y="258"/>
      <point x="182" y="258" type="curve" smooth="yes"/>
      <point x="661" y="258" type="line" smooth="yes"/>
      <point x="703" y="258"/>
      <point x="721" y="268"/>
      <point x="721" y="289" type="curve" smooth="yes"/>
      <point x="721" y="370"/>
      <point x="616" y="416"/>
      <point x="447" y="416" type="curve" smooth="yes"/>
      <point x="226" y="416"/>
      <point x="60" y="328"/>
      <point x="60" y="203" type="curve" smooth="yes"/>
      <point x="60" y="71"/>
      <point x="207" y="-17"/>
    </contour>
    <contour>
      <point x="186" y="289" type="line" smooth="yes"/>
      <point x="164" y="289"/>
      <point x="154" y="292"/>
      <point x="154" y="299" type="curve" smooth="yes"/>
      <point x="154" y="339"/>
      <point x="298" y="387"/>
      <point x="422" y="387" type="curve" smooth="yes"/>
      <point x="565" y="387"/>
      <point x="654" y="355"/>
      <point x="654" y="316" type="curve" smooth="yes"/>
      <point x="654" y="302"/>
      <point x="648" y="295"/>
      <point x="632" y="294" type="curve" smooth="yes"/>
      <point x="572" y="290"/>
      <point x="518" y="289"/>
      <point x="432" y="289" type="curve" smooth="yes"/>
    </contour>
  </outline>
</glyph>
<glyph name="f" format="1">
  <advance width="602"/>
  <unicode hex="0066"/>
  <outline>
    <contour>
      <point x="81" y="-7" type="curve" smooth="yes"/>
      <point x="146" y="-7"/>
      <point x="134" y="-1"/>
      <point x="192" y="-1" type="curve" smooth="yes"/>
      <point x="249" y="-1"/>
      <point x="260" y="-7"/>
      <point x="325" y="-7" type="curve" smooth="yes"/>
      <point x="347" y="-7"/>
      <point x="358" y="-4"/>
      <point x="358" y="5" type="curve" smooth="yes"/>
      <point x="358" y="15"/>
      <point x="340" y="19"/>
      <point x="312" y="21" type="curve" smooth="yes"/>
      <point x="204" y="29"/>
      <point x="220" y="38"/>
      <point x="220" y="65" type="curve" smooth="yes"/>
      <point x="220" y="339" type="line" smooth="yes"/>
      <point x="220" y="347"/>
      <point x="226" y="352"/>
      <point x="258" y="352" type="curve" smooth="yes"/>
      <point x="448" y="352" type="line" smooth="yes"/>
      <point x="454" y="352"/>
      <point x="462" y="355"/>
      <point x="466" y="360" type="curve" smooth="yes"/>
      <point x="473" y="369"/>
      <point x="478" y="380"/>
      <point x="478" y="389" type="curve" smooth="yes"/>
      <point x="478" y="395"/>
      <point x="466" y="400"/>
      <point x="452" y="400" type="curve" smooth="yes"/>
      <point x="242" y="400" type="line" smooth="yes"/>
      <point x="230" y="400"/>
      <point x="220" y="403"/>
      <point x="220" y="411" type="curve" smooth="yes"/>
      <point x="220" y="494" type="line" smooth="yes"/>
      <point x="220" y="609"/>
      <point x="322" y="663"/>
      <point x="465" y="663" type="curve" smooth="yes"/>
      <point x="565" y="663"/>
      <point x="609" y="650"/>
      <point x="648" y="633" type="curve" smooth="yes"/>
      <point x="677" y="620"/>
      <point x="706" y="604"/>
      <point x="733" y="604" type="curve" smooth="yes"/>
      <point x="774" y="604"/>
      <point x="810" y="617"/>
      <point x="810" y="644" type="curve" smooth="yes"/>
      <point x="810" y="679"/>
      <point x="738" y="705"/>
      <point x="590" y="705" type="curve" smooth="yes"/>
      <point x="391" y="705"/>
      <point x="150" y="677"/>
      <point x="150" y="415" type="curve" smooth="yes"/>
      <point x="150" y="407" type="line"/>
      <point x="110" y="396"/>
      <point x="90" y="386"/>
      <point x="62" y="376" type="curve" smooth="yes"/>
      <point x="58" y="375"/>
      <point x="48" y="373"/>
      <point x="48" y="370" type="curve" smooth="yes"/>
      <point x="48" y="363"/>
      <point x="68" y="353"/>
      <point x="76" y="352" type="curve"/>
      <point x="118" y="350"/>
      <point x="124" y="350"/>
      <point x="150" y="350" type="curve"/>
      <point x="150" y="65" type="line" smooth="yes"/>
      <point x="150" y="38"/>
      <point x="136" y="26"/>
      <point x="94" y="21" type="curve" smooth="yes"/>
      <point x="66" y="18"/>
      <point x="48" y="15"/>
      <point x="48" y="5" type="curve" smooth="yes"/>
      <point x="48" y="-4"/>
      <point x="59" y="-7"/>
    </contour>
  </outline>
</glyph>
<glyph name="g" format="1">
  <advance width="870"/>
  <unicode hex="0067"/>
  <outline>
    <contour>
      <point x="606" y="-290"/>
      <point x="836" y="-180"/>
      <point x="836" y="-77" type="curve" smooth="yes"/>
      <point x="836" y="-16"/>
      <point x="718" y="17"/>
      <point x="472" y="24" type="curve" smooth="yes"/>
      <point x="293" y="29"/>
      <point x="147" y="31"/>
      <point x="147" y="74" type="curve" smooth="yes"/>
      <point x="147" y="88"/>
      <point x="222" y="111"/>
      <point x="302" y="128" type="curve"/>
      <point x="216" y="148" type="line"/>
      <point x="199" y="128"/>
      <point x="192" y="125"/>
      <point x="117" y="86" type="curve" smooth="yes"/>
      <point x="91" y="71"/>
      <point x="80" y="59"/>
      <point x="80" y="44" type="curve" smooth="yes"/>
      <point x="80" y="-7"/>
      <point x="164" y="-28"/>
      <point x="414" y="-37" type="curve" smooth="yes"/>
      <point x="665" y="-44"/>
      <point x="772" y="-34"/>
      <point x="772" y="-109" type="curve" smooth="yes"/>
      <point x="772" y="-155"/>
      <point x="722" y="-198"/>
      <point x="643" y="-223" type="curve" smooth="yes"/>
      <point x="593" y="-241"/>
      <point x="513" y="-250"/>
      <point x="411" y="-250" type="curve" smooth="yes"/>
      <point x="234" y="-250"/>
      <point x="96" y="-208"/>
      <point x="96" y="-155" type="curve" smooth="yes"/>
      <point x="96" y="-102"/>
      <point x="152" y="-69"/>
      <point x="316" y="-28" type="curve"/>
      <point x="234" y="-14" type="line"/>
      <point x="175" y="-44"/>
      <point x="115" y="-73"/>
      <point x="81" y="-91" type="curve" smooth="yes"/>
      <point x="42" y="-113"/>
      <point x="22" y="-135"/>
      <point x="22" y="-170" type="curve" smooth="yes"/>
      <point x="22" y="-244"/>
      <point x="162" y="-290"/>
      <point x="390" y="-290" type="curve" smooth="yes"/>
    </contour>
    <contour>
      <point x="267" y="141"/>
      <point x="152" y="191"/>
      <point x="152" y="270" type="curve" smooth="yes"/>
      <point x="152" y="338"/>
      <point x="263" y="386"/>
      <point x="398" y="386" type="curve" smooth="yes"/>
      <point x="561" y="386"/>
      <point x="660" y="353"/>
      <point x="660" y="275" type="curve" smooth="yes"/>
      <point x="660" y="199"/>
      <point x="555" y="141"/>
      <point x="417" y="141" type="curve" smooth="yes"/>
    </contour>
    <contour>
      <point x="574" y="106"/>
      <point x="720" y="193"/>
      <point x="720" y="295" type="curve" smooth="yes"/>
      <point x="720" y="313"/>
      <point x="726" y="332"/>
      <point x="732" y="341" type="curve" smooth="yes"/>
      <point x="736" y="346"/>
      <point x="756" y="349"/>
      <point x="792" y="349" type="curve" smooth="yes"/>
      <point x="846" y="349" type="line"/>
      <point x="850" y="349"/>
      <point x="856" y="351"/>
      <point x="862" y="354" type="curve" smooth="yes"/>
      <point x="874" y="360"/>
      <point x="882" y="368"/>
      <point x="882" y="373" type="curve" smooth="yes"/>
      <point x="882" y="382"/>
      <point x="870" y="388"/>
      <point x="856" y="388" type="curve" smooth="yes"/>
      <point x="836" y="388"/>
      <point x="778" y="385"/>
      <point x="746" y="385" type="curve" smooth="yes"/>
      <point x="706" y="385"/>
      <point x="676" y="386"/>
      <point x="612" y="395" type="curve" smooth="yes"/>
      <point x="556" y="403"/>
      <point x="504" y="416"/>
      <point x="426" y="416" type="curve" smooth="yes"/>
      <point x="244" y="416"/>
      <point x="78" y="351"/>
      <point x="78" y="258" type="curve" smooth="yes"/>
      <point x="78" y="176"/>
      <point x="238" y="106"/>
      <point x="402" y="106" type="curve" smooth="yes"/>
    </contour>
  </outline>
</glyph>
<glyph name="i" format="1">
  <advance width="338"/>
  <unicode hex="0069"/>
  <outline>
    <contour>
      <point x="123" y="-3"/>
      <point x="130" y="2"/>
      <point x="174" y="2" type="curve" smooth="yes"/>
      <point x="218" y="2"/>
      <point x="225" y="-3"/>
      <point x="275" y="-3" type="curve" smooth="yes"/>
      <point x="291" y="-3"/>
      <point x="300" y="0"/>
      <point x="300" y="8" type="curve" smooth="yes"/>
      <point x="300" y="16"/>
      <point x="290" y="20"/>
      <point x="268" y="24" type="curve" smooth="yes"/>
      <point x="241" y="29"/>
      <point x="209" y="35"/>
      <point x="209" y="62" type="curve" smooth="yes"/>
      <point x="209" y="303" type="line" smooth="yes"/>
      <point x="209" y="335"/>
      <point x="217" y="396"/>
      <point x="217" y="419" type="curve" smooth="yes"/>
      <point x="217" y="424"/>
      <point x="214" y="430"/>
      <point x="210" y="430" type="curve" smooth="yes"/>
      <point x="205" y="430"/>
      <point x="196" y="427"/>
      <point x="191" y="423" type="curve" smooth="yes"/>
      <point x="163" y="402"/>
      <point x="128" y="391"/>
      <point x="78" y="383" type="curve" smooth="yes"/>
      <point x="72" y="382"/>
      <point x="68" y="377"/>
      <point x="68" y="369" type="curve" smooth="yes"/>
      <point x="68" y="361"/>
      <point x="73" y="357"/>
      <point x="79" y="355" type="curve" smooth="yes"/>
      <point x="112" y="344"/>
      <point x="139" y="331"/>
      <point x="139" y="277" type="curve" smooth="yes"/>
      <point x="139" y="62" type="line" smooth="yes"/>
      <point x="139" y="35"/>
      <point x="107" y="29"/>
      <point x="80" y="24" type="curve" smooth="yes"/>
      <point x="59" y="20"/>
      <point x="48" y="18"/>
      <point x="48" y="8" type="curve" smooth="yes"/>
      <point x="48" y="0"/>
      <point x="58" y="-3"/>
      <point x="73" y="-3" type="curve" smooth="yes"/>
    </contour>
    <contour>
      <point x="202" y="516"/>
      <point x="224" y="538"/>
      <point x="224" y="566" type="curve" smooth="yes"/>
      <point x="224" y="595"/>
      <point x="202" y="617"/>
      <point x="173" y="617" type="curve" smooth="yes"/>
      <point x="145" y="617"/>
      <point x="123" y="595"/>
      <point x="123" y="566" type="curve" smooth="yes"/>
      <point x="123" y="538"/>
      <point x="145" y="516"/>
      <point x="173" y="516" type="curve" smooth="yes"/>
    </contour>
  </outline>
</glyph>
<glyph name="k" format="1">
  <advance width="934"/>
  <unicode hex="006B"/>
  <outline>
    <contour>
      <point x="84" y="-3" type="curve" smooth="yes"/>
      <point x="134" y="-3"/>
      <point x="139" y="2"/>
      <point x="184" y="2" type="curve" smooth="yes"/>
      <point x="228" y="2"/>
      <point x="223" y="-3"/>
      <point x="273" y="-3" type="curve" smooth="yes"/>
      <point x="283" y="-3"/>
      <point x="319" y="-2"/>
      <point x="319" y="8" type="curve" smooth="yes"/>
      <point x="319" y="18"/>
      <point x="295" y="20"/>
      <point x="273" y="24" type="curve" smooth="yes"/>
      <point x="233" y="31"/>
      <point x="203" y="38"/>
      <point x="203" y="65" type="curve" smooth="yes"/>
      <point x="203" y="88"/>
      <point x="201" y="112"/>
      <point x="201" y="135" type="curve" smooth="yes"/>
      <point x="201" y="158"/>
      <point x="202" y="180"/>
      <point x="204" y="199" type="curve" smooth="yes"/>
      <point x="204" y="204"/>
      <point x="210" y="206"/>
      <point x="218" y="206" type="curve" smooth="yes"/>
      <point x="229" y="206"/>
      <point x="234" y="203"/>
      <point x="245" y="199" type="curve" smooth="yes"/>
      <point x="602" y="62" type="line"/>
      <point x="610" y="57"/>
      <point x="616" y="52"/>
      <point x="616" y="48" type="curve" smooth="yes"/>
      <point x="616" y="36"/>
      <point x="592" y="30"/>
      <point x="562" y="25" type="curve" smooth="yes"/>
      <point x="544" y="22"/>
      <point x="528" y="17"/>
      <point x="528" y="9" type="curve" smooth="yes"/>
      <point x="528" y="4"/>
      <point x="536" y="0"/>
      <point x="564" y="0" type="curve" smooth="yes"/>
      <point x="700" y="0"/>
      <point x="800" y="-3"/>
      <point x="904" y="-3" type="curve" smooth="yes"/>
      <point x="928" y="-3"/>
      <point x="944" y="-1"/>
      <point x="944" y="8" type="curve" smooth="yes"/>
      <point x="944" y="18"/>
      <point x="912" y="21"/>
      <point x="884" y="26" type="curve" smooth="yes"/>
      <point x="844" y="33"/>
      <point x="779" y="57"/>
      <point x="734" y="72" type="curve" smooth="yes"/>
      <point x="687" y="88"/>
      <point x="466" y="177"/>
      <point x="359" y="220" type="curve" smooth="yes"/>
      <point x="355" y="222"/>
      <point x="353" y="225"/>
      <point x="353" y="227" type="curve" smooth="yes"/>
      <point x="353" y="230"/>
      <point x="357" y="234"/>
      <point x="365" y="237" type="curve" smooth="yes"/>
      <point x="466" y="277"/>
      <point x="678" y="345"/>
      <point x="704" y="353" type="curve" smooth="yes"/>
      <point x="740" y="364"/>
      <point x="777" y="377"/>
      <point x="827" y="384" type="curve" smooth="yes"/>
      <point x="855" y="388"/>
      <point x="877" y="394"/>
      <point x="877" y="402" type="curve" smooth="yes"/>
      <point x="877" y="408"/>
      <point x="867" y="412"/>
      <point x="849" y="412" type="curve" smooth="yes"/>
      <point x="811" y="412"/>
      <point x="738" y="400"/>
      <point x="676" y="400" type="curve" smooth="yes"/>
      <point x="585" y="400" type="line" smooth="yes"/>
      <point x="557" y="400"/>
      <point x="541" y="395"/>
      <point x="541" y="388" type="curve" smooth="yes"/>
      <point x="541" y="382"/>
      <point x="547" y="380"/>
      <point x="565" y="378" type="curve" smooth="yes"/>
      <point x="589" y="375"/>
      <point x="610" y="370"/>
      <point x="610" y="363" type="curve" smooth="yes"/>
      <point x="610" y="360"/>
      <point x="605" y="356"/>
      <point x="586" y="348" type="curve" smooth="yes"/>
      <point x="551" y="333"/>
      <point x="455" y="295"/>
      <point x="310" y="248" type="curve" smooth="yes"/>
      <point x="270" y="235"/>
      <point x="238" y="229"/>
      <point x="216" y="229" type="curve" smooth="yes"/>
      <point x="208" y="229"/>
      <point x="203" y="232"/>
      <point x="203" y="238" type="curve" smooth="yes"/>
      <point x="203" y="562" type="line" smooth="yes"/>
      <point x="203" y="647"/>
      <point x="221" y="682"/>
      <point x="221" y="696" type="curve" smooth="yes"/>
      <point x="221" y="702"/>
      <point x="217" y="705"/>
      <point x="209" y="705" type="curve" smooth="yes"/>
      <point x="203" y="705"/>
      <point x="199" y="704"/>
      <point x="187" y="699" type="curve" smooth="yes"/>
      <point x="160" y="687"/>
      <point x="129" y="674"/>
      <point x="75" y="664" type="curve" smooth="yes"/>
      <point x="71" y="663"/>
      <point x="63" y="658"/>
      <point x="55" y="652" type="curve" smooth="yes"/>
      <point x="55" y="646"/>
      <point x="60" y="640"/>
      <point x="68" y="639" type="curve" smooth="yes"/>
      <point x="116" y="630"/>
      <point x="133" y="613"/>
      <point x="133" y="566" type="curve" smooth="yes"/>
      <point x="133" y="65" type="line" smooth="yes"/>
      <point x="133" y="38"/>
      <point x="100" y="29"/>
      <point x="71" y="24" type="curve" smooth="yes"/>
      <point x="55" y="21"/>
      <point x="38" y="18"/>
      <point x="38" y="8" type="curve" smooth="yes"/>
      <point x="38" y="0"/>
      <point x="54" y="-3"/>
    </contour>
  </outline>
</glyph>
<glyph name="l" format="1">
  <advance width="323"/>
  <unicode hex="006C"/>
  <outline>
    <contour>
      <point x="58" y="-3" type="curve" smooth="yes"/>
      <point x="97" y="-3"/>
      <point x="129" y="2"/>
      <point x="164" y="2" type="curve" smooth="yes"/>
      <point x="199" y="2"/>
      <point x="226" y="-3"/>
      <point x="265" y="-3" type="curve" smooth="yes"/>
      <point x="272" y="-3"/>
      <point x="285" y="-2"/>
      <point x="285" y="6" type="curve" smooth="yes"/>
      <point x="285" y="16"/>
      <point x="273" y="22"/>
      <point x="262" y="24" type="curve" smooth="yes"/>
      <point x="220" y="31"/>
      <point x="199" y="40"/>
      <point x="199" y="62" type="curve" smooth="yes"/>
      <point x="199" y="562" type="line" smooth="yes"/>
      <point x="199" y="652"/>
      <point x="206" y="686"/>
      <point x="206" y="698" type="curve" smooth="yes"/>
      <point x="206" y="701"/>
      <point x="204" y="705"/>
      <point x="201" y="705" type="curve" smooth="yes"/>
      <point x="199" y="705"/>
      <point x="197" y="704"/>
      <point x="195" y="703" type="curve" smooth="yes"/>
      <point x="159" y="686"/>
      <point x="116" y="671"/>
      <point x="71" y="666" type="curve" smooth="yes"/>
      <point x="53" y="664"/>
      <point x="50" y="658"/>
      <point x="50" y="652" type="curve" smooth="yes"/>
      <point x="50" y="646"/>
      <point x="53" y="640"/>
      <point x="70" y="636" type="curve" smooth="yes"/>
      <point x="110" y="628"/>
      <point x="129" y="614"/>
      <point x="129" y="566" type="curve" smooth="yes"/>
      <point x="129" y="62" type="line" smooth="yes"/>
      <point x="129" y="35"/>
      <point x="81" y="27"/>
      <point x="61" y="22" type="curve" smooth="yes"/>
      <point x="50" y="19"/>
      <point x="38" y="16"/>
      <point x="38" y="6" type="curve" smooth="yes"/>
      <point x="38" y="-2"/>
      <point x="51" y="-3"/>
    </contour>
  </outline>
</glyph>
<glyph name="o" format="1">
  <advance width="990"/>
  <unicode hex="006F"/>
  <outline>
    <contour>
      <point x="468" y="-14" type="curve" smooth="yes"/>
      <point x="734" y="-14"/>
      <point x="920" y="79"/>
      <point x="920" y="213" type="curve" smooth="yes"/>
      <point x="920" y="324"/>
      <point x="735" y="414"/>
      <point x="508" y="414" type="curve" smooth="yes"/>
      <point x="278" y="414"/>
      <point x="70" y="306"/>
      <point x="70" y="187" type="curve" smooth="yes"/>
      <point x="70" y="72"/>
      <point x="240" y="-14"/>
    </contour>
    <contour>
      <point x="515" y="16" type="curve" smooth="yes"/>
      <point x="291" y="16"/>
      <point x="152" y="90"/>
      <point x="152" y="210" type="curve" smooth="yes"/>
      <point x="152" y="326"/>
      <point x="256" y="383"/>
      <point x="467" y="383" type="curve" smooth="yes"/>
      <point x="689" y="383"/>
      <point x="838" y="305"/>
      <point x="838" y="189" type="curve" smooth="yes"/>
      <point x="838" y="69"/>
      <point x="740" y="16"/>
    </contour>
  </outline>
</glyph>
<glyph name="r" format="1">
  <advance width="669"/>
  <unicode hex="0072"/>
  <outline>
    <contour>
      <point x="84" y="-3" type="curve" smooth="yes"/>
      <point x="136" y="-3"/>
      <point x="144" y="2"/>
      <point x="189" y="2" type="curve" smooth="yes"/>
      <point x="224" y="2"/>
      <point x="236" y="-3"/>
      <point x="296" y="-3" type="curve" smooth="yes"/>
      <point x="314" y="-3"/>
      <point x="322" y="0"/>
      <point x="322" y="8" type="curve" smooth="yes"/>
      <point x="322" y="17"/>
      <point x="309" y="20"/>
      <point x="291" y="24" type="curve" smooth="yes"/>
      <point x="246" y="33"/>
      <point x="220" y="44"/>
      <point x="220" y="62" type="curve" smooth="yes"/>
      <point x="220" y="264" type="line" smooth="yes"/>
      <point x="220" y="331"/>
      <point x="317" y="356"/>
      <point x="427" y="356" type="curve" smooth="yes"/>
      <point x="449" y="356"/>
      <point x="478" y="347"/>
      <point x="503" y="341" type="curve" smooth="yes"/>
      <point x="528" y="335"/>
      <point x="569" y="323"/>
      <point x="587" y="323" type="curve" smooth="yes"/>
      <point x="639" y="323"/>
      <point x="659" y="362"/>
      <point x="659" y="382" type="curve" smooth="yes"/>
      <point x="659" y="400"/>
      <point x="606" y="414"/>
      <point x="531" y="414" type="curve" smooth="yes"/>
      <point x="427" y="414"/>
      <point x="310" y="385"/>
      <point x="225" y="346" type="curve"/>
      <point x="224" y="346"/>
      <point x="223" y="347"/>
      <point x="223" y="348" type="curve"/>
      <point x="225" y="380"/>
      <point x="226" y="416"/>
      <point x="226" y="423" type="curve"/>
      <point x="226" y="427"/>
      <point x="224" y="430"/>
      <point x="220" y="430" type="curve" smooth="yes"/>
      <point x="217" y="430"/>
      <point x="212" y="428"/>
      <point x="203" y="423" type="curve" smooth="yes"/>
      <point x="179" y="410"/>
      <point x="131" y="383"/>
      <point x="89" y="374" type="curve" smooth="yes"/>
      <point x="85" y="373"/>
      <point x="79" y="368"/>
      <point x="79" y="362" type="curve" smooth="yes"/>
      <point x="79" y="356"/>
      <point x="85" y="350"/>
      <point x="91" y="349" type="curve" smooth="yes"/>
      <point x="141" y="342"/>
      <point x="149" y="313"/>
      <point x="149" y="277" type="curve" smooth="yes"/>
      <point x="149" y="62" type="line" smooth="yes"/>
      <point x="149" y="43"/>
      <point x="129" y="31"/>
      <point x="93" y="24" type="curve" smooth="yes"/>
      <point x="70" y="20"/>
      <point x="58" y="18"/>
      <point x="58" y="8" type="curve" smooth="yes"/>
      <point x="58" y="0"/>
      <point x="66" y="-3"/>
    </contour>
  </outline>
</glyph>
<glyph name="s" format="1">
  <advance width="636"/>
  <unicode hex="0073"/>
  <outline>
    <contour>
      <point x="278" y="-14" type="curve" smooth="yes"/>
      <point x="452" y="-14"/>
      <point x="572" y="36"/>
      <point x="572" y="108" type="curve" smooth="yes"/>
      <point x="572" y="170"/>
      <point x="496" y="203"/>
      <point x="341" y="241" type="curve" smooth="yes"/>
      <point x="189" y="278"/>
      <point x="146" y="297"/>
      <point x="146" y="327" type="curve" smooth="yes"/>
      <point x="146" y="351"/>
      <point x="192" y="380"/>
      <point x="337" y="380" type="curve" smooth="yes"/>
      <point x="464" y="380"/>
      <point x="490" y="380"/>
      <point x="517" y="318" type="curve" smooth="yes"/>
      <point x="519" y="314"/>
      <point x="530" y="309"/>
      <point x="540" y="309" type="curve" smooth="yes"/>
      <point x="546" y="309"/>
      <point x="552" y="311"/>
      <point x="552" y="316" type="curve" smooth="yes"/>
      <point x="552" y="344"/>
      <point x="539" y="381"/>
      <point x="521" y="395" type="curve" smooth="yes"/>
      <point x="498" y="413"/>
      <point x="434" y="414"/>
      <point x="346" y="414" type="curve" smooth="yes"/>
      <point x="174" y="414"/>
      <point x="84" y="363"/>
      <point x="84" y="299" type="curve" smooth="yes"/>
      <point x="84" y="249"/>
      <point x="138" y="213"/>
      <point x="305" y="170" type="curve" smooth="yes"/>
      <point x="453" y="132"/>
      <point x="502" y="118"/>
      <point x="502" y="82" type="curve" smooth="yes"/>
      <point x="502" y="52"/>
      <point x="436" y="19"/>
      <point x="296" y="19" type="curve" smooth="yes"/>
      <point x="141" y="19"/>
      <point x="97" y="37"/>
      <point x="74" y="104" type="curve" smooth="yes"/>
      <point x="73" y="109"/>
      <point x="67" y="111"/>
      <point x="62" y="111" type="curve" smooth="yes"/>
      <point x="54" y="111"/>
      <point x="48" y="108"/>
      <point x="48" y="102" type="curve"/>
      <point x="50" y="79"/>
      <point x="56" y="36"/>
      <point x="70" y="22" type="curve"/>
      <point x="120" y="-1"/>
      <point x="196" y="-14"/>
    </contour>
  </outline>
</glyph>
<glyph name="t" format="1">
  <advance width="629"/>
  <unicode hex="0074"/>
  <outline>
    <contour>
      <point x="379" y="-14" type="curve" smooth="yes"/>
      <point x="501" y="-14"/>
      <point x="613" y="36"/>
      <point x="613" y="47" type="curve" smooth="yes"/>
      <point x="613" y="54"/>
      <point x="609" y="61"/>
      <point x="599" y="61" type="curve" smooth="yes"/>
      <point x="597" y="61"/>
      <point x="592" y="60"/>
      <point x="589" y="59" type="curve" smooth="yes"/>
      <point x="529" y="43"/>
      <point x="472" y="41"/>
      <point x="401" y="41" type="curve" smooth="yes"/>
      <point x="282" y="41"/>
      <point x="240" y="80"/>
      <point x="240" y="143" type="curve" smooth="yes"/>
      <point x="240" y="324" type="line" smooth="yes"/>
      <point x="240" y="351"/>
      <point x="248" y="352"/>
      <point x="290" y="352" type="curve" smooth="yes"/>
      <point x="589" y="352" type="line" smooth="yes"/>
      <point x="599" y="352"/>
      <point x="609" y="366"/>
      <point x="609" y="378" type="curve" smooth="yes"/>
      <point x="609" y="390"/>
      <point x="599" y="400"/>
      <point x="589" y="400" type="curve" smooth="yes"/>
      <point x="269" y="400" type="line" smooth="yes"/>
      <point x="246" y="400"/>
      <point x="234" y="404"/>
      <point x="236" y="419" type="curve" smooth="yes"/>
      <point x="243" y="464" type="line" smooth="yes"/>
      <point x="245" y="473"/>
      <point x="234" y="475"/>
      <point x="225" y="475" type="curve" smooth="yes"/>
      <point x="216" y="475"/>
      <point x="210" y="470"/>
      <point x="202" y="463" type="curve" smooth="yes"/>
      <point x="178" y="442"/>
      <point x="134" y="403"/>
      <point x="80" y="383" type="curve" smooth="yes"/>
      <point x="77" y="382"/>
      <point x="70" y="375"/>
      <point x="70" y="372" type="curve" smooth="yes"/>
      <point x="70" y="362"/>
      <point x="80" y="352"/>
      <point x="94" y="352" type="curve" smooth="yes"/>
      <point x="106" y="352" type="line" smooth="yes"/>
      <point x="169" y="352"/>
      <point x="170" y="348"/>
      <point x="170" y="315" type="curve" smooth="yes"/>
      <point x="170" y="117" type="line" smooth="yes"/>
      <point x="170" y="30"/>
      <point x="232" y="-14"/>
    </contour>
  </outline>
</glyph>
<glyph name="z" format="1">
  <advance width="754"/>
  <unicode hex="007A"/>
  <outline>
    <contour>
      <point x="68" y="-5" type="curve" smooth="yes"/>
      <point x="102" y="-5"/>
      <point x="172" y="0"/>
      <point x="228" y="0" type="curve" smooth="yes"/>
      <point x="446" y="0"/>
      <point x="601" y="-5"/>
      <point x="659" y="-5" type="curve" smooth="yes"/>
      <point x="675" y="-5"/>
      <point x="687" y="0"/>
      <point x="691" y="9" type="curve" smooth="yes"/>
      <point x="699" y="26"/>
      <point x="738" y="114"/>
      <point x="738" y="122" type="curve" smooth="yes"/>
      <point x="738" y="133"/>
      <point x="722" y="141"/>
      <point x="713" y="129" type="curve" smooth="yes"/>
      <point x="691" y="100"/>
      <point x="680" y="78"/>
      <point x="654" y="56" type="curve" smooth="yes"/>
      <point x="636" y="40"/>
      <point x="626" y="33"/>
      <point x="578" y="33" type="curve" smooth="yes"/>
      <point x="217" y="33" type="line" smooth="yes"/>
      <point x="199" y="33"/>
      <point x="186" y="39"/>
      <point x="199" y="48" type="curve" smooth="yes"/>
      <point x="630" y="343" type="line" smooth="yes"/>
      <point x="657" y="361"/>
      <point x="678" y="376"/>
      <point x="706" y="393" type="curve"/>
      <point x="712" y="397"/>
      <point x="702" y="405"/>
      <point x="692" y="405" type="curve" smooth="yes"/>
      <point x="570" y="403"/>
      <point x="445" y="402"/>
      <point x="307" y="402" type="curve" smooth="yes"/>
      <point x="289" y="402"/>
      <point x="261" y="401"/>
      <point x="231" y="401" type="curve" smooth="yes"/>
      <point x="195" y="401"/>
      <point x="156" y="402"/>
      <point x="144" y="407" type="curve" smooth="yes"/>
      <point x="132" y="412"/>
      <point x="120" y="416"/>
      <point x="114" y="416" type="curve" smooth="yes"/>
      <point x="106" y="416"/>
      <point x="84" y="408"/>
      <point x="84" y="398" type="curve" smooth="yes"/>
      <point x="84" y="373"/>
      <point x="64" y="322"/>
      <point x="60" y="304" type="curve" smooth="yes"/>
      <point x="56" y="292"/>
      <point x="72" y="286"/>
      <point x="88" y="294" type="curve" smooth="yes"/>
      <point x="107" y="309"/>
      <point x="121" y="333"/>
      <point x="140" y="350" type="curve" smooth="yes"/>
      <point x="149" y="358"/>
      <point x="177" y="371"/>
      <point x="201" y="371" type="curve" smooth="yes"/>
      <point x="518" y="368" type="line" smooth="yes"/>
      <point x="548" y="368"/>
      <point x="542" y="362"/>
      <point x="536" y="358" type="curve"/>
      <point x="387" y="245"/>
      <point x="249" y="164"/>
      <point x="114" y="70" type="curve" smooth="yes"/>
      <point x="85" y="51"/>
      <point x="40" y="17"/>
      <point x="40" y="12" type="curve" smooth="yes"/>
      <point x="40" y="7"/>
      <point x="58" y="-5"/>
    </contour>
  </outline>
</glyph>
<glyph name="braceleft" format="1">
  <advance width="686"/>
  <unicode hex="007B"/>
  <outline>
    <contour>
      <point x="610" y="-151" type="curve" smooth="yes"/>
      <point x="628" y="-151"/>
      <point x="646" y="-145"/>
      <point x="646" y="-136" type="curve" smooth="yes"/>
      <point x="646" y="-125"/>
      <point x="606" y="-123"/>
      <point x="577" y="-122" type="curve" smooth="yes"/>
      <point x="406" y="-116"/>
      <point x="305" y="-96"/>
      <point x="305" y="-23" type="curve" smooth="yes"/>
      <point x="305" y="45"/>
      <point x="332" y="92"/>
      <point x="332" y="150" type="curve" smooth="yes"/>
      <point x="332" y="216"/>
      <point x="237" y="263"/>
      <point x="180" y="280" type="curve"/>
      <point x="178" y="280"/>
      <point x="172" y="282"/>
      <point x="180" y="284" type="curve"/>
      <point x="237" y="301"/>
      <point x="332" y="348"/>
      <point x="332" y="414" type="curve" smooth="yes"/>
      <point x="332" y="472"/>
      <point x="305" y="519"/>
      <point x="305" y="587" type="curve" smooth="yes"/>
      <point x="305" y="660"/>
      <point x="406" y="680"/>
      <point x="577" y="686" type="curve" smooth="yes"/>
      <point x="606" y="687"/>
      <point x="646" y="689"/>
      <point x="646" y="700" type="curve" smooth="yes"/>
      <point x="646" y="709"/>
      <point x="628" y="715"/>
      <point x="610" y="715" type="curve" smooth="yes"/>
      <point x="422" y="711"/>
      <point x="220" y="676"/>
      <point x="220" y="582" type="curve" smooth="yes"/>
      <point x="220" y="512"/>
      <point x="246" y="466"/>
      <point x="246" y="404" type="curve" smooth="yes"/>
      <point x="246" y="346"/>
      <point x="202" y="315"/>
      <point x="129" y="301" type="curve" smooth="yes"/>
      <point x="108" y="297"/>
      <point x="100" y="288"/>
      <point x="100" y="282" type="curve" smooth="yes"/>
      <point x="100" y="276"/>
      <point x="108" y="267"/>
      <point x="129" y="263" type="curve" smooth="yes"/>
      <point x="202" y="249"/>
      <point x="246" y="218"/>
      <point x="246" y="160" type="curve" smooth="yes"/>
      <point x="246" y="98"/>
      <point x="220" y="52"/>
      <point x="220" y="-18" type="curve" smooth="yes"/>
      <point x="220" y="-112"/>
      <point x="422" y="-151"/>
    </contour>
  </outline>
</glyph>
